<?xml version="1.0" standalone="no"?><!DOCTYPE svg PUBLIC "-//W3C//DTD SVG 1.1//EN" "http://www.w3.org/Graphics/SVG/1.1/DTD/svg11.dtd" >
<svg xmlns="http://www.w3.org/2000/svg">
    <metadata></metadata>
    <defs>
        <font
            id="barbara_handregular"
            horiz-adv-x="606">
            <font-face
                units-per-em="2048"
                ascent="1638"
                descent="-410" />
            <missing-glyph horiz-adv-x="378" />
            <glyph horiz-adv-x="0" />
            <glyph
                unicode="&#xd;"
                horiz-adv-x="378" />
            <glyph
                unicode=" "
                horiz-adv-x="378" />
            <glyph
                unicode="&#x09;"
                horiz-adv-x="378" />
            <glyph
                unicode="&#xa0;"
                horiz-adv-x="378" />
            <glyph
                unicode="!"
                horiz-adv-x="530"
                d="M221 430q0 379 23 430q12 27 75 27q14 0 15 -15q0 6 -19 -129q-23 -166 -22 -282q0 -176 47 -182q22 -3 22 -13q0 -8 -30.5 -27.5t-40.5 -19.5q-16 0 -37 22.5t-27 54.5t-6 134zM293 111q0 18 22 26q72 14 54 15q14 0 14 -17v-51q4 -59 37 -78q22 -12 22 -22 q0 -27 -39 -27q-55 0 -88 61q-23 47 -22 93z" />
            <glyph
                unicode="&#x22;"
                horiz-adv-x="417"
                d="M74 829q-2 53 41 54q43 0 43 -54q0 -12 -6 -71l-19 -180h-37l-18 180zM242 827q0 55 43 56q41 0 41 -54q0 -12 -7 -77l-16 -174h-37l-18 178q-6 12 -6 71z" />
            <glyph
                unicode="#"
                horiz-adv-x="872"
                d="M6 330l25 63h182l94 262h-182l22 62h185l119 330h71l-121 -330h211l119 330h72l-121 -330h182l-22 -62h-183l-94 -262h183l-25 -63h-182l-119 -330h-72l121 330h-211l-121 -330h-69l120 330h-184zM283 393h211l96 262h-211z" />
            <glyph
                unicode="$"
                horiz-adv-x="833"
                d="M90 330q0 57 45 57q14 0 15 -20q0 -123 46 -193t142 -119q90 -45 164 -45q82 0 82 105q0 82 -58 211q-39 84 -166 315q-61 111 -61 143q0 37 36 61.5t95 24.5q35 0 80 -10q35 133 43 139q14 20 59 21q25 0 25 -14q0 -4 -11.5 -38t-41.5 -132q131 -61 131 -91 q0 -8 -18.5 -24t-24.5 -16t-68 49q-92 59 -176 59q-49 0 -49 -33q0 -31 98 -209q172 -311 172 -450q0 -82 -45 -124t-108 -42q-60 0 -123 25q-12 -53 -35 -117q-6 -14 -29 -15q-47 0 -47 17q0 8 39 145q-211 109 -211 320z" />
            <glyph
                unicode="%"
                horiz-adv-x="909"
                d="M123 578q0 84 57.5 156.5t145.5 72.5q112 0 112 -111q0 -76 -57 -149q-66 -82 -152 -82q-106 0 -106 113zM172 -23q0 84 156 297q274 375 417 527q12 12 72 12q16 0 17 -10q0 -20 -35 -43q-170 -184 -355 -434q-197 -268 -196 -326q0 -16 14 -25.5t14 -15.5 q0 -31 -49 -31q-55 0 -55 49zM186 588q0 -70 56 -70q49 0 94 61.5t45 116.5q0 59 -62 60q-53 0 -93 -54.5t-40 -113.5zM496 106q0 86 57 159t145 73q113 0 113 -113q0 -76 -63.5 -153.5t-145.5 -77.5q-106 0 -106 112zM559 117q0 -70 55 -70q49 0 94.5 60.5t45.5 117.5 q0 59 -62 60q-53 0 -93 -53.5t-40 -114.5z" />
            <glyph
                unicode="&#x26;"
                horiz-adv-x="1099"
                d="M47 59q0 84 111 215q123 145 329 306q-45 59 -139 206q-23 -14 -31 -14q-10 0 -20 16.5t-10 24.5q0 35 110 102q129 78 256 78q80 0 134.5 -34.5t54.5 -98.5q0 -63 -70 -133q-45 -45 -201 -158q135 -178 228 -245q55 74 104 165q23 41 39 41q29 0 29 -26q0 -51 -123 -217 q63 -43 133 -68q45 -16 49 -20q-8 -16 -18 -39q-20 -39 -31 -39q-10 0 -61 24q-68 35 -125 82q-295 -295 -570 -295q-74 0 -123 33q-55 35 -55 94zM131 88q0 -86 119 -86q237 0 495 264q-113 104 -227 264q-115 -92 -225 -198q-162 -158 -162 -244zM397 836q39 -63 142 -218 q68 49 174 140q45 43 45 84q0 88 -125 88q-123 0 -236 -94z" />
            <glyph
                unicode="'"
                horiz-adv-x="419"
                d="M168 829q0 53 43 54q41 0 41 -54q0 -10 -3 -47l-3 -37l-17 -167h-36l-19 170q-6 57 -6 81z" />
            <glyph
                unicode="("
                horiz-adv-x="681"
                d="M170 176q0 225 86 479q104 313 258 314q57 0 96 -47q29 -36 29 -56q0 -14 -19.5 -29.5t-29.5 -15.5q-6 0 -23 35q-25 53 -55 53q-88 0 -178 -250.5t-90 -480.5q0 -197 100 -196q68 0 150 86q37 39 41 38q12 0 12 -14q0 -35 -70 -100q-80 -74 -158 -74q-150 0 -149 258z " />
            <glyph
                unicode=")"
                horiz-adv-x="681"
                d="M55 164q0 25 17 24q6 0 24 -53q49 -150 140 -149q92 0 180 260q80 244 80 461q0 205 -80 204q-23 0 -55.5 -25.5t-30.5 -25.5q-10 0 -23.5 25t-7.5 37t31 30q35 23 73 23q162 0 162 -295q0 -209 -84 -463q-100 -303 -233 -303q-86 0 -146 100q-47 82 -47 150z" />
            <glyph
                unicode="*"
                horiz-adv-x="681"
                d="M111 600q0 27 32 27h35q68 23 184 57q-70 86 -120 123q-33 25 -33 35q0 25 24 24q31 0 160 -145q10 18 107 168q25 37 32 37q27 0 27 -21l-119 -198q111 23 187 22q57 0 57 -33q0 -29 -27 -28q4 0 -30 10q-10 4 -29 4q-47 0 -154 -20q147 -168 148 -199q0 -20 -27 -21 q-8 0 -43 45q-19 37 -123 154q-43 -72 -100 -184q-20 -51 -37 -51q-25 0 -24 22q0 20 100 203q-178 -59 -191 -60q-37 0 -36 29z" />
            <glyph
                unicode="+"
                horiz-adv-x="872"
                d="M74 330v65h327v330h70v-330h328v-65h-328v-330h-70v330h-327z" />
            <glyph
                unicode=","
                horiz-adv-x="378"
                d="M123 76q0 4 25.5 21.5t31.5 17.5q16 0 37 -33t21 -84q0 -63 -28 -121.5t-48 -58.5t-21 18q0 16 11 37q14 49 14 76q0 55 -19 82q0 4 -12 22.5t-12 22.5z" />
            <glyph
                unicode="-"
                horiz-adv-x="681"
                d="M80 285q-2 20 16 20q16 0 96 -2t93 -2q8 0 147 2h146q27 0 26 -33q0 -18 -8 -22t-43 -4q-14 0 -219 2h-215q-27 0 -33 5t-6 34z" />
            <glyph
                unicode="."
                horiz-adv-x="378"
                d="M139 47q1 57 58 57t57 -57t-57 -57t-58 57z" />
            <glyph
                unicode="/"
                horiz-adv-x="681"
                d="M78 -18q0 -4 96 178q217 412 377 768q8 18 19.5 21t56.5 3q28 0 28 -10q0 -6 -53 -102q-250 -457 -420 -828q-12 -29 -20 -35t-37 -6q-47 0 -47 11z" />
            <glyph
                unicode="0"
                horiz-adv-x="720"
                d="M106 444q0 422 244 422q125 0 217 -112q101 -123 101 -330q0 -160 -93 -299q-102 -154 -241 -154q-96 0 -158 113q-70 125 -70 360zM178 451q0 -227 74 -332q49 -74 121 -74q82 0 152.5 118t70.5 265q0 184 -84 287q-76 92 -172 92q-162 0 -162 -356z" />
            <glyph
                unicode="1"
                d="M41 485q0 14 25 25q82 27 206 139q94 86 113 115q2 12 9 69.5t7 61.5q14 39 64 39q29 0 29 -27q0 10 -27 -131q-31 -162 -31 -426q0 -211 35 -280q27 -53 27 -52q0 -12 -17.5 -25t-34.5 -13q-78 0 -77 354q0 205 12 346q-63 -76 -166.5 -151.5t-146.5 -75.5q-27 0 -27 32 z" />
            <glyph
                unicode="2"
                horiz-adv-x="796"
                d="M-20 35q0 27 100 172q82 119 121 119q23 -1 43 -21l55 -57q131 121 227 266q104 162 105 260q0 57 -39 57q-70 0 -172 -86q-88 -76 -96 -104q-14 -49 -58 -49q-29 0 -30 22q0 20 124 146q35 35 91 71q92 59 161 60q94 0 95 -100q0 -225 -363 -584q236 -207 369 -207 q49 0 78 45q16 27 32 27q23 0 23 -25q0 -35 -41 -66.5t-107 -31.5q-152 0 -407 213q-55 -51 -148.5 -107.5t-122.5 -56.5q-12 0 -26 14.5t-14 22.5zM51 59q136 81 197 142q-45 45 -60 61q-57 -74 -137 -203z" />
            <glyph
                unicode="3"
                horiz-adv-x="909"
                d="M55 283q0 59 49 59q20 0 21 -16q0 -4 -5 -17.5t-5 -15.5q0 -57 90 -156q119 -131 291 -131q135 0 222 59.5t87 153.5q0 106 -109 176q-100 63 -227 64q-78 0 -139 -17q-53 -14 -41 -14q-6 0 -20.5 18.5t-14.5 24.5t29 16q147 55 266 129q150 90 149 150q0 49 -88 49 q-184 0 -374 -178q-37 -35 -48 -35q-29 0 -28 27q0 35 143 129q168 111 320 110q70 0 111.5 -27.5t41.5 -70.5q0 -59 -108 -139q-90 -66 -213 -119q164 4 288 -80q133 -86 134 -215q0 -125 -125 -199q-106 -61 -250 -61q-203 0 -340 139q-106 109 -107 187z" />
            <glyph
                unicode="4"
                horiz-adv-x="909"
                d="M27 266q0 8 30 27q16 14 49 31q82 160 125 233q59 104 177 285q16 29 49 61q33 12 49 12q18 0 18 -20q0 -8 -28 -45q-221 -279 -312 -492q86 41 299 105q18 139 33 203q6 31 78 53q12 0 12 -12q0 -2 -18 -80q-2 -12 -27 -142q158 37 268 37q94 0 95 -30q0 -25 -52 -54 q-43 -23 -57 -22q-16 0 -16 22q0 12 51 33q-113 8 -297 -39q-23 -106 -23 -250q0 -76 29 -121l17 -18q16 -18 16 -23q0 -10 -21.5 -25t-50.5 -15q-57 0 -57 200q0 100 16 232q-176 -45 -340 -127q-94 -47 -88 -47q-25 0 -24 28z" />
            <glyph
                unicode="5"
                horiz-adv-x="872"
                d="M29 92q0 35 26 35q12 0 17 -25q4 -33 66.5 -62.5t152.5 -29.5q160 0 305 92q156 96 156 222q0 104 -111 155q-76 33 -162 33q-119 0 -229 -59q-70 -47 -80 -47q-6 0 -17.5 14t-11.5 20q0 16 66 49q27 98 76 271q8 25 75 24q10 0 11 -8l-11 -28q145 6 291 102q37 25 51 24 q16 0 17 -18q0 -31 -96 -84q-121 -64 -283 -78q-39 -102 -53 -170q96 39 202 39q150 0 249.5 -67.5t99.5 -163.5q0 -145 -183 -260q-174 -111 -370 -111q-102 0 -174 33q-80 37 -80 98z" />
            <glyph
                unicode="6"
                horiz-adv-x="645"
                d="M74 242q0 231 104.5 443t216.5 212q43 0 43 -33q0 -18 -11 -34.5t-24 -16.5q-2 0 -16 9t-18 9q-18 0 -56.5 -40.5t-66.5 -100.5q-100 -209 -101 -440q0 -203 95 -203q76 0 183 117t107 225q0 90 -79 90q-63 0 -123 -45q-72 -55 -92 -151q-8 -37 -15 -37q-10 0 -23.5 23.5 t-13.5 35.5q0 55 76 131q90 94 207 94q127 0 127 -139q0 -121 -126 -263t-243 -142q-152 0 -151 256z" />
            <glyph
                unicode="7"
                horiz-adv-x="681"
                d="M66 438q0 14 47 19q35 6 209 28q78 156 190 326q-109 12 -258 -12q-74 -12 -74 -45q0 -14 17 -23q20 -14 20 -20q0 -12 -26.5 -25.5t-40.5 -13.5q-47 0 -48 59q0 94 145.5 118.5t301.5 18.5q14 18 45 37q45 10 76 10q12 0 12 -6l-47 -53q-137 -158 -238 -367q51 4 97 5 q195 0 194 -35q0 -10 -43 -25.5t-51 -15.5q-6 0 -19 12q-29 14 -94 14q-75 0 -106 -4q-150 -295 -150 -442q0 -14 10.5 -32.5t10.5 -20.5q0 -35 -62 -35q-41 0 -41 57q0 172 156 467q-43 -4 -143 -18q-43 -6 -68 -6q-23 0 -22 28z" />
            <glyph
                unicode="8"
                horiz-adv-x="681"
                d="M88 276q0 47 66 107q115 104 206 180q-43 162 -88 299l-26 80q0 31 45 31q18 0 28 -33q2 -4 10.5 -28.5t10.5 -28.5q78 31 137 30q141 0 141 -104q0 -59 -49 -121q-33 -41 -137 -137q90 -328 90 -457q0 -156 -96 -155q-72 0 -240 186q-98 109 -98 151zM158 285 q0 -31 98 -144q131 -150 174 -149q33 0 33 94t-35 236q-22 88 -51 184q-78 -57 -154 -131q-66 -63 -65 -90zM352 831q18 -51 64 -221q137 111 137 191q0 63 -80 63q-55 0 -121 -33z" />
            <glyph
                unicode="9"
                horiz-adv-x="720"
                d="M53 170q0 20 19.5 35.5t29.5 15.5q12 0 25 -53q14 -63 66 -115q61 -61 143 -61q145 0 201 180q43 137 43 309q-1 125 -17 221q-121 -152 -188 -210q-111 -102 -203 -103q-61 0 -61 55q0 68 139 248q147 190 256 201q-16 33 -17 43q0 14 29 26.5t45 12.5t29 -53 q53 -223 53 -408q0 -207 -47 -346q-80 -229 -276 -229q-127 0 -207 100q-61 76 -62 131zM184 471q0 -20 23 -20q61 0 191.5 139t140.5 213q0 31 -31 31q-68 0 -199 -158q-125 -150 -125 -205z" />
            <glyph
                unicode=":"
                horiz-adv-x="454"
                d="M129 39q0 57 57 57t58 -57q0 -57 -58 -57q-57 0 -57 57zM174 397q0 58 57 58q55 0 56 -58q0 -57 -56 -57q-57 0 -57 57z" />
            <glyph
                unicode=";"
                horiz-adv-x="454"
                d="M162 397q0 58 57 58t57 -58q0 -57 -57 -57t-57 57zM201 80q0 4 25.5 21.5t31.5 17.5q14 0 35.5 -33t21.5 -84q0 -61 -28 -125q-27 -55 -47 -55t-21 18q0 16 10 37q12 43 13 76q0 49 -17 82q-25 49 -24 45z" />
            <glyph
                unicode="&#x3c;"
                horiz-adv-x="872"
                d="M74 330v71l725 293v-76l-641 -253l641 -254v-76z" />
            <glyph
                unicode="="
                horiz-adv-x="872"
                d="M74 188v64h725v-64h-725zM74 475v64h725v-64h-725z" />
            <glyph
                unicode="&#x3e;"
                horiz-adv-x="872"
                d="M74 35v76l641 254l-641 253v76l725 -295v-71z" />
            <glyph
                unicode="?"
                horiz-adv-x="757"
                d="M141 322q0 49 49 114q37 47 172 189q197 205 197 225q0 16 -29 16q-96 0 -211.5 -57t-115.5 -90q0 -6 10 -10t10 -11q0 -25 -39 -24q-43 0 -43 43q0 59 154 135q135 68 242 68q104 -1 104 -62q0 -41 -82 -127q-53 -53 -108 -106q-131 -129 -187 -199q-43 -53 -43 -84 q0 -51 53 -51q106 0 306 137q47 33 55 33q16 0 16 -15q0 -35 -141 -118q-154 -88 -260 -88q-45 0 -77 22.5t-32 59.5zM322 115q0 18 22 24q51 14 53 15q14 0 15 -17v-51q4 -61 37 -78q22 -12 22 -22q0 -25 -39 -25q-55 0 -86 62q-25 45 -24 92z" />
            <glyph
                unicode="@"
                horiz-adv-x="1175"
                d="M63 483q0 231 165 385t413 154q211 0 341 -117t130 -297q0 -150 -85 -257t-198 -107q-104 0 -104 90q0 20 14 69q-76 -160 -215 -159q-80 0 -134 55t-54 152q0 119 76 223q84 113 202 112q168 0 179 -174l45 156h43l-84 -270q-37 -119 -37 -158q0 -66 78 -66 q90 0 165.5 101.5t75.5 232.5q0 162 -114 269q-121 113 -326 112q-242 0 -397 -155q-145 -147 -146 -351q0 -190 133 -323q145 -145 385 -146q211 1 412 140l21 -27q-207 -145 -433 -145q-260 0 -413 157q-137 141 -138 344zM383 449q0 -80 42 -126.5t107 -46.5 q106 0 179 125q57 101 57 193q0 72 -41 116t-106 44q-98 0 -170 -103q-68 -94 -68 -202z" />
            <glyph
                unicode="A"
                horiz-adv-x="1138"
                d="M-53 -78q8 8 28 27q207 178 353 502q112 250 112 360q0 39 -2 35q6 12 45 28q-20 82 -20 99q0 18 26.5 35.5t38.5 17.5q10 0 11 -16q0 -135 96 -463q100 53 217 88q96 29 137 29q27 0 27 -21q0 -20 -49 -31q-136 -26 -316 -112q86 -244 193 -377q94 -121 176 -121 q53 0 84 33q23 25 33 24q16 0 16 -14q0 -23 -33 -53q-43 -41 -110 -41q-225 0 -418 514q-209 -115 -281 -186q-133 -225 -239 -336q-37 -39 -78 -39q-47 0 -47 18zM360 381q80 53 215 135q-29 94 -71 279q-51 -231 -144 -414z" />
            <glyph
                unicode="B"
                horiz-adv-x="1251"
                d="M4 512q0 10 35 37q508 375 895 375q172 0 172 -78q0 -55 -111 -154q-94 -84 -233 -160q37 6 94 7q147 0 252.5 -61.5t105.5 -158.5q0 -145 -278 -272q-158 -72 -328 -72q-27 0 -55 5q-20 141 -21 339q0 170 23 463q-229 -86 -430 -247q-66 -53 -74 -54q-6 0 -26.5 11.5 t-20.5 19.5zM596 426q0 -289 16 -387q23 -2 47 -2q164 0 325 93t161 187q0 55 -60 105q-81 67 -238 67h-5q-131 0 -246 -63zM600 492q184 94 313 196q121 96 121 141q0 47 -102 48q-154 0 -307 -68q-19 -186 -25 -317z" />
            <glyph
                unicode="C"
                horiz-adv-x="757"
                d="M78 248q0 244 194 495q186 242 346 242q74 0 74 -63q0 -84 -88 -178.5t-110 -94.5q-25 0 -25 25q0 10 35 41q129 115 129 180q0 33 -33 33q-119 0 -283 -221q-172 -231 -172 -437q0 -96 45 -155q51 -70 150 -70q80 0 168 53q74 45 124 110.5t68 65.5q20 0 21 -22 q0 -45 -119 -148q-144 -124 -299 -124h-2q-131 0 -188 114q-35 70 -35 154z" />
            <glyph
                unicode="D"
                horiz-adv-x="1366"
                d="M78 780q0 55 107.5 113.5t293.5 58.5q123 0 262 -39q80 164 119 215q31 39 64 39q47 0 47 -55q0 -25 -19 -25q-4 0 -16 9.5t-14 9.5q-10 0 -27 -29q-61 -106 -96 -184q182 -76 295 -172q215 -186 215 -389q0 -147 -132.5 -241.5t-326.5 -94.5q-233 0 -444 131 q-37 -80 -89 -166q-31 -55 -86 -135q-20 -23 -38 -23q-39 0 -39 37q0 18 20 101q23 150 23 229q0 137 -15 244q-12 92 -12 88q0 25 37 24q18 0 24.5 -10t20.5 -57q43 -150 139 -242q141 274 332 653q-127 37 -242 37q-276 0 -358 -137q-6 -20 -21 -20q-25 0 -24 30z M213 -109q47 76 147 269q-72 63 -118 157q6 -61 6 -139q0 -156 -35 -287zM432 178q213 -131 432 -131q166 0 269 84q96 78 96 193q0 158 -112 297t-341 227l-41 -80q-111 -221 -303 -590z" />
            <glyph
                unicode="E"
                horiz-adv-x="985"
                d="M76 190q0 113 67 256q78 170 222 310q196 192 354 192h2q43 0 76.5 -14t33.5 -35q0 -16 -24.5 -32.5t-36.5 -16.5q-10 0 -27.5 17.5t-48.5 17.5q-117 0 -282 -164q-188 -184 -254 -424q92 55 131 76q68 35 151 69q133 53 232 54q76 0 76 -29q0 -25 -39 -25 q-123 0 -217 -34q-80 -29 -144 -62q-125 -61 -194 -127q10 -174 192 -174q121 0 301 92q133 70 225 146q49 41 62 41q18 0 18 -15q0 -31 -100 -106q-111 -84 -240 -142q-160 -71 -286 -71h-4q-102 0 -158 35q-88 55 -88 165z" />
            <glyph
                unicode="F"
                horiz-adv-x="1099"
                d="M12 637q0 27 113 102.5t235 134.5q356 172 646 173q129 0 186 -33q51 -29 51 -56q0 -20 -25.5 -43.5t-41.5 -23.5q-10 0 -21 43q-16 61 -135 61q-244 0 -539 -127q-260 -111 -393 -237q-29 -27 -43 -27q-33 0 -33 33zM352 340q0 12 107 61q72 33 157 68q18 358 39 375 q30 24 73 24h3q8 0 8 -6q0 4 -18 -78q-23 -100 -37 -295q154 39 250 39q125 0 125 -49q0 -43 -51 -43q-25 0 -31 25q-8 18 -49 18q-86 0 -246 -43q-4 -78 -4 -143q0 -334 94 -334q49 0 49 -14q0 -33 -71 -33q-137 0 -138 362q0 47 2 140q-74 -25 -161 -70q-37 -16 -78 -35 q-23 0 -23 31z" />
            <glyph
                unicode="G"
                horiz-adv-x="796"
                d="M51 -246q0 10 29 27.5t35 17.5q-2 0 37 -86q49 -111 159 -178q94 -61 178 -61q94 0 141.5 112.5t47.5 266.5q0 255 -90 448q-100 -129 -211 -219q-100 -82 -184 -82q-119 0 -119 127q0 131 102.5 339t245.5 351q164 164 311 164q55 0 55 -39q0 -55 -28 -55q-4 0 -27 22 q-14 12 -43 13q-152 0 -346 -285t-194 -487q0 -82 71 -82q63 0 149.5 78.5t178.5 199.5l-31 37q-6 6 -6 14q0 10 30.5 25.5t39.5 15.5q16 0 43 -49q116 -221 116 -501q0 -250 -90 -382q-59 -88 -176 -88q-111 0 -219 80q-82 59 -150 154q-55 78 -55 102z" />
            <glyph
                unicode="H"
                horiz-adv-x="1099"
                d="M18 365q0 6 128 46t188 50v15q0 183 24 427q4 39 25 49q47 25 70 25q10 0 10 -10v2q-3 0 -27 -117q-27 -141 -35 -379q150 33 332 33q80 0 111 -6q16 0 16 -19q0 -18 -17.5 -37.5t-25.5 -19.5q18 0 -51 16q-43 10 -111 11q-117 0 -254 -31q-1 -43 -1 -83q0 -226 20 -314 q16 -74 72 -125q4 -4 4 -9q0 -4 -21.5 -23.5t-32.5 -19.5q-70 0 -96 174q-15 104 -15 294q0 42 1 89q-76 -23 -168 -49q-64 -32 -94 -32h-2q-12 0 -31 18t-19 25zM870 276q0 45 7 283q6 252 10 272q2 14 38 28.5t56 14.5q10 0 10 -10q0 -8 -8 -43q-12 -41 -18 -92 q-21 -159 -21 -438q0 -125 14 -168q10 -31 50 -55l4 -5q12 -8 12 -14q0 -12 -19.5 -32.5t-29.5 -20.5q-14 0 -33 14q-51 39 -65 123q-6 37 -7 143z" />
            <glyph
                unicode="I"
                horiz-adv-x="378"
                d="M166 530q0 109 6 258q6 131 9 136.5t35 23t46 18.5q20 0 21 -22v2q-2 0 -17 -74q-30 -154 -30 -321v-21q2 -188 6 -266q10 -145 34 -188q2 -2 15.5 -17.5t13.5 -19.5q0 -8 -21.5 -27.5t-35.5 -19.5q-41 0 -61.5 113.5t-20.5 424.5z" />
            <glyph
                unicode="J"
                horiz-adv-x="757"
                d="M70 301q0 76 43 76t43 -55q0 -8 -11 -19q-23 -18 -22 -31q0 -135 90 -305q102 -190 217 -190q74 0 109 110q45 145 45 363q0 188 -19 366q-12 117 -33 205q-25 4 -51 4q-72 0 -150.5 -23.5t-78.5 -39.5q0 -14 41 -37l59 -33q0 -8 -14 -28.5t-27 -20.5q-29 0 -82 40 t-53 73q0 43 99.5 86t234.5 51q-12 31 -33 57q-8 10 -8 17q0 14 28.5 27.5t45.5 13.5q14 0 28 -37q35 -96 50 -207q24 -188 24 -412v-18q0 -612 -209 -613q-143 0 -260 201q-106 186 -106 379z" />
            <glyph
                unicode="K"
                horiz-adv-x="948"
                d="M158 522q0 362 18 410q14 37 80 37q10 0 10 -8t-7 -49.5t-7 -47.5q-26 -177 -26 -339q0 -31 1 -62q102 90 150 139q92 98 184 232q47 78 96 157q16 10 58 10q29 0 28 -10q0 -18 -137 -205q-164 -225 -303 -342q168 -186 342 -303q167 -114 262 -114h2q4 0 23.5 2t21.5 2 q18 0 19 -19q0 -37 -78 -37q-197 0 -498 285l-151 143l-17 -12v-24q0 -80 11 -191q16 -164 47 -201q10 -14 45 -30q10 0 10 -17q0 -14 -13.5 -32.5t-25.5 -18.5q-16 0 -41 21q-39 35 -59 106q-45 160 -45 518z" />
            <glyph
                unicode="L"
                horiz-adv-x="796"
                d="M-49 -220q0 10 24 27l103 76q35 90 74 307q41 240 41 394q0 211 -72 280q-37 37 -37 47q0 31 72 31q112 0 112 -332v-6q0 -129 -34.5 -335t-77.5 -335q289 193 485 193q92 0 143 -35q37 -25 37 -43q0 -12 -20.5 -28.5t-34.5 -16.5t-49 32t-94 32q-109 0 -285 -95 q-164 -88 -295 -200q-35 -31 -45 -31q-12 0 -29.5 15.5t-17.5 22.5z" />
            <glyph
                unicode="M"
                horiz-adv-x="1820"
                d="M-51 51q0 55 61 55q43 0 43 -28q0 -18 -14 -21q-29 -6 -29 -20q0 -51 66 -121q74 -80 162 -80q119 0 240.5 118t191.5 300q125 324 125 491q0 37 -29 107q0 4 -9 23.5t-9 21.5q0 12 29.5 31.5t41.5 19.5q10 0 29 -57q174 -547 297 -739q84 313 323 675q0 154 14.5 173.5 t69.5 19.5q14 0 15 -14v3q-1 1 -11 -81q-10 -96 -10 -248q0 -383 86 -545q53 -100 123 -100q25 0 62 18q12 6 18 6q12 0 12 -14q0 -20 -34.5 -38.5t-75.5 -18.5q-172 0 -234 323q-29 153 -29 354q0 30 1 62q-74 -100 -164 -309q-94 -215 -113 -336q2 -4 3 -8t3 -8 q0 -4 -23.5 -38t-29.5 -34q-16 0 -78 117q-96 184 -225 542q-104 -532 -348 -747q-133 -119 -269 -119q-117 0 -206 107q-76 90 -76 157z" />
            <glyph
                unicode="N"
                horiz-adv-x="1478"
                d="M16 111q0 92 15 131q6 27 22 26q14 0 15 -16q0 -14 -4.5 -52t-4.5 -55q0 -135 58 -211q47 -63 143 -63q291 0 453 537q86 283 98 417q-16 35 -76 117q-14 18 -14 23q0 10 28.5 25.5t38.5 15.5q6 0 37 -54q80 -141 248 -483q113 -227 178 -336q-6 43 -6 100q0 205 43 472 q39 250 82 352q12 28 74 28h4q8 0 8 -6q0 6 -29 -82q-114 -351 -114 -792v-8q0 -129 13 -160l13 -31q0 -8 -24.5 -26.5t-36.5 -18.5q-23 0 -197 340q-108 215 -217 430q-74 -332 -151 -510q-176 -405 -462 -405h-1q-129 0 -191 106q-43 78 -43 189z" />
            <glyph
                unicode="O"
                horiz-adv-x="1214"
                d="M61 362q0 248 211 441q195 180 402 180q151 0 151 -81q0 -24 -23.5 -40t-41.5 -16q-12 0 -35 33q-39 55 -102 55q-137 0 -297 -154q-182 -174 -183 -389q0 -160 103 -270q109 -119 280 -119q188 0 369 139q197 152 197 346q0 113 -82 185q-96 86 -281 86q-152 0 -272 -43 q-4 0 -31 -11.5t-33 -11.5q-8 0 -8 8q0 23 100 58q117 39 248 39q176 0 301 -72q146 -86 146 -233q0 -186 -213 -361q-221 -182 -484 -182q-217 0 -331 145q-90 115 -91 268z" />
            <glyph
                unicode="P"
                horiz-adv-x="1099"
                d="M18 541q0 23 138 114q147 100 223 144q137 78 258 114q178 53 313 54q195 0 195 -115q0 -76 -70.5 -171t-179.5 -175q-143 -109 -305 -123v-43q0 -66 4 -139q5 -89 6 -89v3q10 -90 49 -90q14 0 31.5 13t28.5 13q20 0 20 -18q0 -20 -28.5 -42t-63.5 -22q-86 0 -107 160 q-10 78 -10 274q0 174 23 426q-147 -72 -473 -299q-12 -6 -27 -6q-25 0 -25 17zM592 438q72 6 117 21q78 25 157 88q66 51 127 129q74 96 74 158q0 79 -126 79h-3q-152 0 -311 -53q-35 -174 -35 -422z" />
            <glyph
                unicode="Q"
                horiz-adv-x="1214"
                d="M59 362q0 248 211 441q195 180 402 180q151 0 151 -81q0 -24 -23.5 -40t-41.5 -16q-12 0 -35 33q-39 55 -102 55q-137 0 -297 -154q-182 -174 -183 -389q0 -156 101 -268q109 -121 286 -121q63 0 164 29l-129 100q-20 20 -20 23q0 10 30.5 32.5t44.5 22.5q11 0 19 -10 l139 -131q313 162 314 419q0 113 -82 185q-96 86 -281 86q-152 0 -272 -43q-4 0 -31 -11.5t-33 -11.5q-8 0 -8 8q0 23 100 58q117 39 248 39q186 0 316.5 -82t130.5 -215q0 -160 -150 -312q-100 -98 -213 -155l139 -117q111 -92 209 -92q4 0 23.5 3t21.5 3q10 -2 11 -12 q0 -39 -76 -39q-133 0 -406 217q-84 -31 -164 -41q-43 -6 -92 -6q-217 0 -329 143q-92 115 -93 270z" />
            <glyph
                unicode="R"
                horiz-adv-x="1327"
                d="M12 528q0 20 51 68q76 72 224 145q375 184 692 185q274 0 274 -119q0 -106 -172 -234q-160 -119 -315 -149q166 -199 364 -305q133 -74 191 -74q41 0 41 -12q0 -16 -25.5 -26.5t-46.5 -10.5q-59 0 -196 72q-156 82 -279 194q-74 68 -129 139q-43 55 -43 64q0 16 72 27 q8 0 22 -25h7q99 1 255 113q162 116 162 204q0 92 -178 93q-186 0 -315 -43q-51 -176 -86 -433q-29 -211 -29 -323q0 -57 6 -98q10 -31 10 -39q0 -31 -41 -31q-37 0 -43 49q-2 16 -2 96q0 221 92 752q-391 -131 -501 -285q-14 -18 -31 -18q-31 0 -31 24z" />
            <glyph
                unicode="S"
                horiz-adv-x="796"
                d="M92 389h2q45 -2 45 -22q0 -12 -18 -13q-49 0 -49 -35q0 -76 164 -245q135 -141 245 -142q92 0 92 146q0 149 -137 534l-51 144q-41 115 -41 149q0 41 40 64.5t97 23.5q117 0 252 -80q127 -76 127 -125q0 -18 -26.5 -39.5t-42.5 -21.5q-27 0 -27 27q0 2 2 13t2 13 q0 39 -92 99q-100 63 -191 63q-53 0 -53 -35q0 -49 76 -266q139 -401 139 -553q0 -215 -168 -215q-141 0 -305 182q-149 165 -149 266q0 68 67 68z" />
            <glyph
                unicode="T"
                horiz-adv-x="948"
                d="M55 602q0 14 56 72q76 78 196 155q342 217 656 218q153 0 153 -47q0 -15 -24.5 -46.5t-38.5 -31.5q-12 0 -19 24q-10 47 -86 47q-208 0 -413 -98q100 -307 100 -627q0 -348 -152 -348q-96 0 -147 139q-37 94 -37 174q0 33 23 33q16 0 22 -41q43 -258 135 -258t92 285 q0 332 -108 610q-244 -133 -336 -260q-18 -25 -31 -24q-41 0 -41 24z" />
            <glyph
                unicode="U"
                horiz-adv-x="1290"
                d="M47 608q0 147 203 228q135 53 338 71q0 57 5 64.5t31.5 21t43.5 13.5q16 0 16 -17v1q-1 0 -14 -93q-90 -653 -90 -899q0 -86 24 -86q63 0 250 350q180 342 180 430q0 27 -30 236q0 14 33.5 29.5t47.5 15.5q12 0 15 -117q6 -606 94 -766q12 -25 57 -41q23 -8 23 -14 q0 -8 -19.5 -35t-35.5 -27q-59 0 -101 101q-45 115 -76 473q-150 -371 -303 -580q-81 -112 -156 -112h-1q-41 0 -54.5 26.5t-13.5 91.5q0 109 21 351q23 223 51 522q-184 -4 -320 -55q-168 -61 -168 -170q0 -41 23.5 -71t46 -30t22.5 -12q0 -47 -34 -47q-35 0 -72 43 t-37 104z" />
            <glyph
                unicode="V"
                horiz-adv-x="1138"
                d="M66 539q0 180 200 272q96 45 297 74q2 27 6 59q4 10 23.5 26.5t34.5 16.5q20 0 20 -24q-4 -43 -6 -54q-12 -113 -12 -276q0 -317 47 -504q43 -168 110 -168q55 0 105 121q86 207 86 414q0 160 -53 243q-2 2 -20.5 25.5t-18.5 28.5q0 10 25.5 22t35.5 12q31 0 64 -73 q39 -92 39 -224q0 -229 -107 -471q-76 -172 -168 -172q-121 0 -172 289q-40 224 -40 533q0 53 1 108q-250 -6 -364 -102q-84 -70 -84 -170q0 -72 43 -123q35 -41 63 -41q2 0 13.5 2t13.5 2q18 0 18 -25q0 -41 -45 -41q-53 0 -104 66t-51 154z" />
            <glyph
                unicode="W"
                horiz-adv-x="1214"
                d="M45 -162q0 31 31 205q45 256 117 528l112 426q4 8 39 19.5t47 11.5q8 0 10 -8q0 -2 -18 -51q-94 -244 -186 -656q-78 -344 -78 -397q0 -8 6 -8q33 0 324 516q104 186 104 213q0 -2 -8 35q0 14 39 33.5t57 19.5q14 0 14 -16l-2 -99q0 -45 17 -159q23 -139 53 -238 q37 -119 76 -160q31 -37 84 -37q76 0 125 88.5t49 212.5q0 158 -68 299q-61 127 -115 127q-2 0 -13 -3t-13 -3q-8 0 -22.5 17.5t-14.5 36.5q0 27 35 26q111 0 203 -182q84 -166 84 -322q0 -141 -74 -243q-76 -111 -191 -111q-137 0 -209 217q-27 78 -75 352 q-156 -260 -377 -614q-78 -109 -127 -109q-35 0 -35 33z" />
            <glyph
                unicode="X"
                horiz-adv-x="985"
                d="M63 -416q0 96 113 386t219 458q-158 246 -223 338q-23 31 -45 61q0 6 33 25.5t45 19.5q10 0 16 -14q76 -123 178 -289q10 -16 43 -69q305 446 531 446q106 0 106 -108q0 -47 -20 -47q-10 0 -29 34q-35 63 -86 64q-188 0 -471 -438q188 -274 399 -400q33 -20 33 -31 q0 -25 -28 -24q-63 0 -185 98q-135 111 -262 287q-70 -111 -151 -311q-102 -254 -132 -441q-8 -51 -14 -63q-8 -18 -35 -19q-35 0 -35 37z" />
            <glyph
                unicode="Y"
                horiz-adv-x="1099"
                d="M49 664q0 156 469 241q-8 16 -8 29q0 12 35 24q27 8 39 9q16 0 18 -41q4 -182 10 -424q8 -164 25 -398q0 -23 12 -22q8 0 45 59q123 197 201 459q-6 23 -37 88q-2 4 -11 22.5t-9 20.5q0 10 32.5 27.5t40.5 17.5q16 0 39 -84q59 -223 60 -475q0 -242 -74 -438 q-76 -203 -246 -203q-219 0 -342 270q-61 137 -61 256q0 41 63 41q18 0 19 -18q0 -6 -3.5 -34t-3.5 -32q0 -170 103.5 -302t228.5 -132q154 0 217 244q37 139 37 311q0 184 -33 305q-78 -219 -190 -401q-51 -82 -98 -82q-31 0 -41.5 23.5t-16.5 105.5q-16 305 -43 713 q-123 -2 -262 -51q-153 -55 -153 -114q0 -26 30.5 -36t30.5 -29q0 -33 -41 -32q-33 0 -57.5 23.5t-24.5 58.5z" />
            <glyph
                unicode="Z"
                horiz-adv-x="1175"
                d="M29 25q6 20 22 55q82 184 86 328q0 20 19 24q29 6 41 6q10 0 53 -24q84 -47 188 -113q127 123 166 168q-49 -8 -98 -8q-45 0 -45 24q0 18 37 21q78 4 153 12q143 170 197 258q16 27 67 27q39 0 39 -17q0 -12 -221 -262q41 4 195 21q6 0 39.5 4t40.5 4q25 0 24 -23 q0 -31 -57 -32q-70 -3 -285 -21l-203 -209q334 -219 537 -219q37 0 56.5 9.5t29.5 9.5q82 0 82 -27q0 -16 -51 -32.5t-117 -16.5q-137 0 -309 78q-100 45 -277 153q-281 -246 -352 -246q-14 0 -35.5 17.5t-21.5 30.5zM102 39q44 23 179 125l106 92q-86 49 -184 117 q-31 -180 -101 -334zM324 680q0 111 100 179.5t301 68.5q84 0 174 -10q102 -13 102 -29q0 -10 -22.5 -28.5t-30.5 -18.5q-41 14 -59 22q-55 16 -158 17q-193 0 -272 -68q-61 -53 -62 -119q0 -27 15 -49q14 -29 14 -35q0 -16 -41 -16q-61 0 -61 86z" />
            <glyph
                unicode="["
                horiz-adv-x="681"
                d="M145 -33q0 5 35 19q-31 113 -30 254q0 276 98 718q154 59 278 60q57 0 115 -12q70 -14 70 -41q0 -25 -27 -25q-6 0 -32.5 7t-30.5 7q-35 10 -89 11q-125 0 -215 -45q-25 -84 -53 -258q-43 -244 -43 -402q0 -135 27 -256q123 37 217 37q82 0 156 -8q29 0 28 -17 q0 -14 -12 -17t-70 -3q-184 0 -305 -47q-74 -29 -61 -29q-18 0 -56 47z" />
            <glyph
                unicode="\"
                horiz-adv-x="681"
                d="M27 942q0 10 28 10q66 0 76 -24q158 -352 377 -768q96 -182 96 -178q0 -10 -41 -11q-45 0 -57 25q-76 164 -225 467l-246 459q-8 14 -8 20z" />
            <glyph
                unicode="]"
                horiz-adv-x="681"
                d="M-12 -27q0 25 26 25q10 0 64 -14q31 -8 88 -9q125 0 215 43q23 72 55 261q41 240 41 399q0 145 -26 258q-122 -39 -218 -39q-20 0 -155 8q-29 2 -29 19q0 14 12.5 16t69.5 2q186 0 305 49q31 14 62 27q18 0 55 -45q0 -6 -35 -21q31 -106 31 -254q0 -276 -98 -718 q-166 -59 -279 -60q-57 0 -113 12q-72 14 -71 41z" />
            <glyph
                unicode="^"
                horiz-adv-x="872"
                d="M156 438l243 609h72l246 -609h-70l-211 529l-211 -529h-69z" />
            <glyph
                unicode="_"
                horiz-adv-x="1024"
                d="M0 -154h1024v-102h-1024v102z" />
            <glyph
                unicode="`"
                horiz-adv-x="303"
                d="M66 803q0 23 24 22q20 0 109 -69q78 -61 77 -78q0 -23 -22 -23q-14 0 -117 80q-23 16 -61 49q-10 7 -10 19z" />
            <glyph
                unicode="a"
                d="M39 47q0 104 123 289.5t205 185.5q6 0 14 -4q-14 72 -14 70q0 18 24 28q18 10 35 11q23 0 23 -29q0 -135 30 -307q33 -184 70 -234q0 -2 22.5 -18t22.5 -21q0 -26 -29 -26h-2q-66 0 -100 104q-39 117 -57 258q-57 -96 -142 -204q-119 -152 -172 -152t-53 49zM98 76 q0 -12 8 -13q31 0 155 166t124 203q0 31 -29 31q-53 0 -155.5 -164t-102.5 -223z" />
            <glyph
                unicode="b"
                horiz-adv-x="569"
                d="M94 416q0 96 12 272q12 166 17.5 177.5t32 25.5t43.5 14q16 0 16 -16q-10 -45 -25 -103q-34 -174 -40 -401q49 82 118.5 132t132.5 50q104 0 105 -129q0 -117 -97.5 -287.5t-168.5 -170.5q-55 0 -93 79q-53 113 -53 357zM164 254q0 -63 20 -127q25 -82 64 -82 q49 0 125 147.5t76 237.5q0 78 -66 78q-53 0 -129 -72q-90 -86 -90 -182z" />
            <glyph
                unicode="c"
                horiz-adv-x="417"
                d="M41 141q0 141 91 279.5t175 138.5q49 0 49 -35q0 -20 -21.5 -43.5t-37.5 -23.5q-14 0 -14 10q0 4 7 18.5t7 16.5q0 6 -8 6q-37 0 -105 -109q-73 -123 -73 -242q0 -114 55 -114q61 0 139 100l68 86q12 12 20 13q16 0 17 -19q0 -33 -78 -125q-89 -110 -174 -110h-2 q-115 0 -115 153z" />
            <glyph
                unicode="d"
                horiz-adv-x="645"
                d="M43 39q0 127 134 311.5t235 184.5q16 0 30 -11q-8 213 -8 320q0 53 18.5 66.5t43.5 13.5q28 -1 28 -15l-12 -84q-12 -84 -12 -227q0 -246 37 -428q29 -137 67 -137q23 0 23 -10t-15.5 -23.5t-33.5 -13.5q-57 0 -91 125q-18 76 -36 249q-59 -131 -177 -252.5t-184 -121.5 q-47 0 -47 53zM102 68q0 -20 15 -21q47 0 176 162.5t129 232.5q0 33 -29 33q-31 0 -92 -58.5t-106 -129.5q-92 -143 -93 -219z" />
            <glyph
                unicode="e"
                horiz-adv-x="454"
                d="M70 182q0 131 51 252q59 143 155 144q68 0 68 -72t-55 -158q-60 -92 -152 -151q-1 -12 -1 -23q0 -131 89 -131q63 0 178 92q39 31 50 31q14 0 14 -16q0 -18 -41 -56q-119 -106 -211 -106q-145 0 -145 194zM137 264q55 37 101.5 111t46.5 112q0 33 -25 33q-37 0 -76 -92 q-35 -80 -47 -164z" />
            <glyph
                unicode="f"
                horiz-adv-x="454"
                d="M180 492q0 244 49.5 349t124.5 105q43 0 43 -33q0 -20 -13 -36.5t-24 -16.5q-2 0 -11 4t-11 4q-29 0 -55 -71q-35 -99 -35 -279q131 59 231 60q27 0 27 -11q0 -23 -10 -28q-29 -29 -54 -29q-2 0 -15 5t-15 5q-59 0 -164 -55q10 -369 37 -547q35 -229 112 -229q4 0 23.5 6 t21.5 6q16 0 17 -14q0 -10 -19.5 -23.5t-46.5 -13.5q-137 0 -182 303q-31 207 -31 483q-109 -68 -123 -67q-30 0 -30 26q0 14 153 97z" />
            <glyph
                unicode="g"
                d="M4 -268q0 25 23 24q12 0 53 -55q96 -127 203 -127q111 0 161 123q35 86 35 213q0 245 -51 399q-43 -92 -168 -206.5t-176 -114.5q-43 0 -43 41q0 113 124 319q112 184 166 184q6 0 11 -2q-14 31 -14 37q0 14 22.5 26.5t38.5 12.5q18 0 25.5 -13t29.5 -79 q100 -293 101 -563q0 -207 -78 -322q-70 -104 -182 -104q-106 0 -203 94q-78 78 -78 113zM111 76q0 -12 8 -13q37 0 153 132q125 137 125 211q0 10 -13 41.5t-26 31.5q-51 0 -151 -174q-96 -166 -96 -229z" />
            <glyph
                unicode="h"
                horiz-adv-x="569"
                d="M76 -57q0 66 27.5 453.5t35.5 432.5q2 14 30 25.5t40 11.5q14 0 14 -14l-6 -49q-16 -104 -57 -488q-10 -119 -25 -278q27 78 98 252q80 197 98.5 217t51.5 20q10 0 12 -8l-2 -36t-2 -44q0 -135 33 -239q6 -29 27 -74q31 -68 59 -68q14 0 31.5 14.5t25.5 14.5q16 0 17 -14 q0 -18 -28 -40t-58 -22q-68 0 -117 119q-47 111 -51 258q-82 -195 -160 -393q-18 -49 -27.5 -59.5t-31.5 -10.5q-35 0 -35 19z" />
            <glyph
                unicode="i"
                horiz-adv-x="303"
                d="M78 342q0 135 18 154q26 26 56 26h2q20 0 20 -18q0 3 -1 3q-3 0 -15 -61q-16 -76 -17 -182q0 -223 58 -233q33 -6 32 -17q0 -37 -59 -37q-55 0 -76 101q-18 90 -18 264zM98 707v-1v87q0 41 62 41q18 0 18 -13q0 -6 -12 -49q-4 -22 -4 -49q0 -29 2 -39q0 -2 2 -11t2 -11 q0 -18 -31 -19q-35 0 -39 64z" />
            <glyph
                unicode="j"
                horiz-adv-x="342"
                d="M-133 -184q0 33 24 32q18 0 35 -77q39 -178 131 -179q55 0 80 97q31 123 31 288q0 340 -49 488q-8 25 -8 29q0 30 59 30h4q14 0 19 -22q38 -209 38 -510q0 -455 -174 -455q-98 0 -153 125q-37 86 -37 154zM29 813q0 20 41 21q31 0 43 -33q24 -84 24 -117q0 -43 -31 -43 q-25 0 -32 51q-6 41 -25.5 88t-19.5 33z" />
            <glyph
                unicode="k"
                horiz-adv-x="569"
                d="M94 246q0 135 33 540q4 43 38 56.5t46 13.5t12 -12q-14 -74 -33 -172q-37 -221 -40 -463q37 41 110 158q72 111 90.5 129t59.5 18q18 0 18 -16q0 -25 -176 -246q76 -57 291 -197q43 -25 47 -30q0 -6 -17.5 -24.5t-23.5 -18.5q-23 0 -336 221q-20 -23 -57 -66 q-2 -13 -2 -25q0 -36 18 -65q2 -2 16.5 -15.5t13.5 -17.5q0 -32 -38 -32h-2q-39 0 -53.5 63.5t-14.5 200.5z" />
            <glyph
                unicode="l"
                horiz-adv-x="266"
                d="M74 598q0 190 17.5 215t64.5 25q18 0 18 -19q0 6 -16 -88q-18 -106 -19 -276q0 -344 58 -404q16 -16 51 -20q10 -3 10 -13q0 -24 -42 -24h-3q-92 0 -119 203q-20 152 -20 401z" />
            <glyph
                unicode="m"
                horiz-adv-x="872"
                d="M41 385q0 18 37 78q47 72 98 72t51 -66q0 -113 -47 -379q90 188 168 303q49 72 69.5 90.5t45.5 18.5q29 0 29 -17q0 -2 -11 -59q-22 -122 -22 -247v-11q0 -25 6 -25q14 0 94 146q68 125 84 164q37 88 82 88q18 0 18 -15q0 -2 -5 -66.5t-5 -76.5q0 -332 90 -332 q4 0 21.5 5t19.5 5q14 0 15 -16q0 -16 -24 -30.5t-52 -14.5q-88 0 -117 150q-15 85 -15 189q0 31 1 64q-59 -133 -140 -268q-45 -74 -88 -74q-35 0 -43 27q-6 20 -6 88q0 100 15 219q-66 -90 -191 -327q-49 -92 -59 -93q-51 10 -51 33l14 98q41 281 41 345q0 18 -12 18 q-16 0 -48 -59q-20 -41 -38 -41q-25 0 -25 16z" />
            <glyph
                unicode="n"
                horiz-adv-x="569"
                d="M61 12q0 27 18.5 237t25 221t63.5 34q12 0 12 -21q0 -4 -16 -98q-33 -193 -41 -289q61 125 166 314q53 94 67 112q23 29 54 29q20 0 20 -16q0 3 -1 3q-2 0 -15 -67q-12 -61 -13 -129q0 -84 15 -160q27 -141 90 -141q23 0 47 18q18 14 27 15q16 0 16 -19q0 -20 -33 -37.5 t-67 -17.5q-158 0 -158 350q0 8 4 58q-86 -150 -190 -375q-25 -55 -39 -56q-6 0 -29 11.5t-23 23.5z" />
            <glyph
                unicode="o"
                horiz-adv-x="530"
                d="M43 250q0 113 57 201q54 81 119 81h2q17 0 31 -14q23 14 51 14q70 0 127 -61q61 -68 62 -170q0 -106 -68 -201q-76 -106 -188 -106q-90 0 -144 80q-49 72 -49 176zM106 276q0 -104 50 -165q43 -55 102 -56q61 0 114.5 63.5t53.5 153.5q0 92 -46 154q-41 55 -100 56 q-8 0 -16 -1q-8 -43 -37 -43q-6 0 -12 6q-18 16 -29 17q-25 0 -49 -51q-31 -57 -31 -134z" />
            <glyph
                unicode="p"
                d="M82 -70q0 139 33 576q2 25 4 31t12 12q25 10 55 12q20 0 21 -14q0 -27 -35 -185q172 172 289 173q112 0 112 -95q0 -57 -53 -151q-66 -115 -168 -199q-117 -96 -202 -98q-2 -66 -2 -119q0 -107 8 -160q10 -67 36 -67h1q4 0 21 8t19 8q12 0 13 -18q0 -16 -21.5 -33 t-46.5 -17q-53 0 -74.5 72t-21.5 264zM147 47q125 14 244 154q113 133 113 233q0 49 -51 49q-53 0 -148 -73q-84 -66 -141 -138q-4 -43 -17 -225z" />
            <glyph
                unicode="q"
                d="M45 45q0 121 174 330q102 123 166 123q16 0 25 -6q0 10 -4 61l-3 51q0 14 27 26.5t41 12.5q18 0 18 -16q0 -8 -6 -66q-6 -66 -6 -74q-6 -98 -6 -211q0 -135 12 -282q20 -219 60 -258q10 -10 23.5 -16.5t13.5 -14.5q0 -14 -16.5 -29.5t-31.5 -15.5q-63 0 -93.5 185.5 t-30.5 459.5q-39 -86 -138 -190q-111 -117 -176 -117q-49 0 -49 47zM106 76q1 -17 15 -17q41 0 160.5 148.5t119.5 210.5q0 24 -20 24h-2q-49 0 -161 -151.5t-112 -214.5z" />
            <glyph
                unicode="r"
                horiz-adv-x="530"
                d="M57 438q0 12 24.5 27.5t39.5 15.5q29 0 51 -61q27 -82 64 -191q49 168 116 252q76 94 137 94q63 0 64 -69q0 -37 -37 -37q-23 0 -39 31q-6 20 -12 20q-33 0 -100 -100q-78 -115 -78 -234q0 -51 16 -110q12 -41 12 -45q0 -12 -14 -27.5t-27 -15.5q-29 0 -49 78 q-70 260 -135 340q-33 33 -33 32z" />
            <glyph
                unicode="s"
                horiz-adv-x="493"
                d="M29 174q0 61 49 62q18 0 18 -17q0 -4 -6 -24.5t-6 -22.5q0 -51 90 -104q84 -49 152 -50q51 0 51 31q0 33 -103 180q-94 137 -118 179q-31 53 -31 86q0 51 68 51q84 0 161.5 -46t83.5 -91q2 -14 -14 -25.5t-27 -11.5q-12 0 -33.5 39t-70.5 65q-41 20 -70 21q-20 0 -20 -15 q0 -37 125 -217q35 -49 67 -96q45 -70 45 -109t-30.5 -65.5t-83.5 -26.5q-106 0 -201.5 67.5t-95.5 139.5z" />
            <glyph
                unicode="t"
                horiz-adv-x="493"
                d="M45 369q86 55 135 80v210q0 6 -2 40t-2 40q0 25 33 43q23 12 37 13q20 0 20 -25l-14 -117q-4 -41 -10 -172q145 63 192 64q20 0 21 -13q0 -16 -24.5 -36.5t-33.5 -20.5q-2 0 -11 2t-11 2q-39 0 -135 -55q-1 -32 -1 -65q0 -99 9 -205q10 -121 67 -121q41 0 84 76 q23 39 35 38q18 0 19 -22q0 -33 -41 -82q-51 -59 -113 -59q-86 0 -106 157q-10 80 -15 250q-59 -37 -123 -76q-24 0 -24 32q0 13 14 22z" />
            <glyph
                unicode="u"
                d="M92 68q0 51 17 370q2 29 26.5 45.5t42.5 16.5q25 0 25 -19q0 8 -15 -57q-30 -137 -30 -326v-12q0 -31 16 -31q18 0 105 97q123 137 122 192q0 63 -4 105.5t-4 50.5q0 18 25.5 33.5t42.5 15.5q18 0 18 -23q0 -4 -3 -27.5t-3 -25.5q-4 -55 -4 -102q0 -96 12 -187 q14 -112 39 -112l17 4q16 0 16 -15q0 -10 -17.5 -29.5t-35.5 -19.5q-39 0 -58 58q-14 43 -28 168q-70 -88 -95 -119q-43 -47 -98 -96q-45 -39 -71 -39q-57 0 -58 84z" />
            <glyph
                unicode="v"
                horiz-adv-x="530"
                d="M92 479q0 35 14 49q31 33 54 33t22 -22q0 10 -12 -56q-6 -33 -6 -82q0 -156 27.5 -261t66.5 -105q45 0 87 105.5t42 209.5q0 49 -20 49q-41 4 -41 27q0 45 65 45q53 0 53 -115t-47 -233q-59 -143 -145 -143q-98 0 -133 178q-27 137 -27 321z" />
            <glyph
                unicode="w"
                horiz-adv-x="757"
                d="M51 -49q0 233 131 522q53 117 90 117q29 0 29 -15v1q-5 0 -65 -127q-59 -127 -97 -283q-33 -133 -33 -217q0 -43 9 -43q8 0 37 49q80 139 192 403q25 55 53 56q12 0 16.5 -11.5t12.5 -72.5q16 -123 74 -219q51 -88 96 -88q41 0 41 92q0 98 -37 188q-33 80 -68 94 q-23 6 -22 17q0 14 13.5 32.5t21.5 18.5q27 0 80 -94q66 -117 65 -250q0 -152 -92 -152q-84 0 -152 119q-57 97 -71 203q-182 -446 -277 -447q-47 0 -47 107z" />
            <glyph
                unicode="x"
                horiz-adv-x="569"
                d="M47 442q0 14 21.5 26.5t33.5 12.5q20 0 58 -43q31 -35 94 -125q90 143 156 201q77 84 147 84t70 -66q0 -47 -27 -47q-23 0 -22 27q-4 35 -21 35q-59 0 -166 -135q-51 -72 -102 -146q102 -127 161.5 -182t59.5 -59q0 -6 -17.5 -22.5t-27.5 -16.5q-14 0 -78 69 q-12 12 -67.5 80t-65.5 78q-29 -47 -111 -211q-20 -39 -24 -39t-24.5 12.5t-20.5 20.5q0 25 143 264q-74 98 -137 148q-33 25 -33 34z" />
            <glyph
                unicode="y"
                d="M-33 -113q14 0 29 -41q29 -86 122 -158.5t185 -72.5q90 0 125 92t35 227q0 193 -51 410q-137 -397 -228 -397q-57 0 -69 96q-18 141 -19 334q0 39 27 56.5t43 17.5q10 0 10 -13q0 -31 -8 -80q-6 -88 -6 -139q0 -213 28 -213q23 0 101 176q82 184 82 269q0 41 -29 98 q-29 43 -29 41q0 10 28 25.5t34 15.5q35 0 84 -185q65 -244 65 -462v-7q0 -409 -230 -409h-1q-123 0 -244 108q-110 101 -110 178q0 34 26 33z" />
            <glyph
                unicode="z"
                horiz-adv-x="681"
                d="M25 0q0 6 71 168q31 70 43 86q18 25 45 25q29 0 111 -62q68 66 229 244q-14 2 -40 2t-64 -2q-96 -6 -96 -29q0 -10 19 -15t19 -24q0 -31 -30 -31q-25 0 -45.5 18.5t-20.5 47.5q0 63 123 80q37 4 170 4q20 41 28.5 48t45.5 7q25 0 24 -12q0 -33 -161 -211 q-68 -70 -160 -164q98 -76 153 -104q88 -45 125 -45q2 0 22.5 7t25.5 7q18 0 18 -20q0 -41 -68 -41h-2q-127 0 -313 163q-10 -8 -65.5 -56t-63.5 -54q-84 -68 -105 -68q-10 0 -24 12.5t-14 18.5zM92 43q72 55 162 135q-53 45 -70 45q-4 0 -16 -20z" />
            <glyph
                unicode="{"
                horiz-adv-x="681"
                d="M201 305q0 -2 30 82l5 10q20 57 20 119q0 12 -2 81t-2 79q0 176 39 285q43 121 160 120q63 0 124.5 -41t61.5 -75q0 -25 -21 -25q-10 0 -34 25q-66 66 -136 65q-131 0 -131 -358q0 -10 3.5 -73.5t3.5 -76.5q0 -67 -29 -141q31 18 53 18q76 0 76 -92q0 -47 -29 -209 l-41 -233q-20 -123 -20 -184q0 -100 92 -101q47 0 94 33q76 53 105 180q10 45 24 45q25 0 25 -53q0 -96 -77 -178t-179 -82q-57 0 -99 37q-47 43 -47 116q0 72 52 369q37 215 36 254q0 41 -24 41q-18 0 -64 -33q-31 -23 -49 -22q-20 0 -20 18z" />
            <glyph
                unicode="|"
                horiz-adv-x="342"
                d="M135 -438v2048h70v-2048h-70z" />
            <glyph
                unicode="}"
                horiz-adv-x="681"
                d="M94 821q0 96 77 178t179 82q57 0 99 -37q47 -43 47 -116q0 -72 -52 -369q-37 -215 -36 -254q0 -41 24 -41q18 0 64 33q35 25 49 25q20 0 20 -21q0 2 -30 -82l-5 -10q-20 -57 -20 -119q0 -12 2 -80.5t2 -79.5q0 -176 -39 -284q-43 -121 -160 -121q-63 0 -124.5 41 t-61.5 76q0 25 21 24q10 0 34 -24q66 -66 135 -66q131 0 132 358q0 10 -3.5 75t-3.5 75q0 67 29 141q-31 -18 -53 -18q-76 0 -76 92q0 47 29 209l41 233q20 123 20 185q0 100 -92 100q-47 0 -94 -33q-76 -53 -105 -180q-10 -45 -24 -45q-25 0 -25 53z" />
            <glyph
                unicode="~"
                horiz-adv-x="872"
                d="M55 264q14 111 82 158q41 29 90 29q51 0 226 -58q55 -18 135 -43q23 -8 55 -8q100 0 125 119h49q-27 -184 -172 -185q-47 0 -203 52q-174 57 -211 57q-105 0 -125 -121h-51z" />
            <glyph
                unicode="&#xa1;"
                horiz-adv-x="530"
                d="M145 559q0 27 41 27q55 0 86 -62q25 -47 25 -94q0 -16 -23 -24q-43 -14 -53 -15q-16 1 -16 17l2 51q-4 57 -37 78q-25 12 -25 22zM227 276q0 8 31 28t39 20q16 0 36.5 -22.5t27 -54.5t6.5 -136q0 -381 -23 -428q-12 -27 -74 -27q-16 0 -16 14q0 -20 20 129q23 166 23 283 q0 176 -47 182q-23 2 -23 12z" />
            <glyph
                unicode="&#xa2;"
                horiz-adv-x="569"
                d="M45 92q0 92 86 225q100 154 236 211q33 119 43 137.5t45 18.5q27 0 26 -10q0 2 -51 -139q68 14 68 -46q0 -49 -58 -49q-37 0 -37 25q0 16 -8 16q-57 0 -145 -98q-57 -63 -94 -145q-35 -74 -35 -119q0 -78 86 -78q55 0 131 47q47 31 68.5 54.5t35.5 23.5q18 0 19 -16 q0 -23 -49 -66q-62 -51 -150 -84q-25 -78 -59 -182q-16 -47 -37 -47q-29 0 -29 22q0 6 60 199q-152 -14 -152 100z" />
            <glyph
                unicode="&#xa3;"
                horiz-adv-x="833"
                d="M-2 -133q0 -14 45 158q23 86 80 335q16 82 88 82q18 0 37 -34q20 -41 47 -89q55 90 129 209l-98 -14q-16 0 -17 37q0 10 39 16l107 15q137 211 180 262q63 76 119 76q80 0 80 -76q0 -37 -27 -79t-45 -42q-25 0 -25 20q4 8 10.5 19.5t10.5 19.5q18 18 18 52q0 27 -26 26 q-33 0 -103 -94q-33 -45 -123 -182q84 6 164 6q45 0 45 -15q0 -25 -28 -28q-88 -4 -211 -10q-125 -203 -168 -277q225 -324 393 -323q59 0 115 34q29 18 32 19q16 0 17 -15q0 -20 -52 -49q-57 -33 -124 -32q-182 0 -418 305q-70 -121 -178 -285q-47 -72 -78 -72 q-35 0 -35 25zM72 -45q84 115 182 293q-47 78 -70 121q-68 -264 -112 -414z" />
            <glyph
                unicode="&#xa4;"
                horiz-adv-x="872"
                d="M106 240l97 94q-72 94 -72 194t72 193l-97 94l41 43l97 -94q98 68 190 67q106 0 195 -69l94 96l43 -43l-96 -96q72 -92 71 -191q0 -102 -71 -194l96 -94l-43 -43l-94 94q-94 -68 -193 -68q-102 0 -192 70l-97 -96zM195 526q0 -98 70.5 -168.5t170.5 -70.5q98 0 170 70.5 t72 168.5q0 100 -72 171t-170 71q-100 0 -170.5 -70.5t-70.5 -171.5z" />
            <glyph
                unicode="&#xa5;"
                horiz-adv-x="909"
                d="M-29 913q0 66 150 66q43 0 55 -5t33 -32q168 -217 272 -420q80 264 195 457q12 18 45 38.5t43 20.5q12 0 18 -20q-10 -14 -22 -35q-164 -254 -230 -532q195 55 279 55q10 0 10 -27q0 -29 -12 -28q-133 -10 -285 -54q-8 -41 -20 -127q115 37 250 37q27 0 26 -24 q0 -18 -9 -22.5t-48 -4.5q-129 -2 -227 -39q-18 -168 -19 -217q0 -41 10.5 -53.5t16.5 -22.5q0 -8 -23.5 -33.5t-40.5 -25.5q-41 0 -41 90q0 47 25 238q-39 -16 -135 -64q-51 -29 -62 -29q-25 0 -24 23q0 12 32 29q59 33 197 94q14 104 21 131q-115 -39 -175 -70 q-2 -2 -57 -35q-47 -29 -51 -28q-29 0 -29 24q0 20 105 76q72 37 202 82q-49 119 -151 279q-98 154 -158 208q-51 4 -90 -4q-4 -2 -32.5 -11t-30.5 -9q-12 0 -13 24z" />
            <glyph
                unicode="&#xa6;"
                horiz-adv-x="342"
                d="M135 -182v512h70v-512h-70zM135 842v512h70v-512h-70z" />
            <glyph
                unicode="&#xa7;"
                horiz-adv-x="833"
                d="M-10 -31q0 25 24.5 39.5t51.5 14.5q31 0 30 -21q0 -8 -16 -18q-29 -10 -29 -21q0 -35 154.5 -100.5t273.5 -65.5q104 0 105 66q0 59 -84 147q-49 51 -236 217q-84 76 -118.5 114t-34.5 60q0 33 49 58q57 29 162 28q96 0 194 -24.5t98 -42.5q0 -8 -13 -25.5t-23 -17.5 q-14 0 -72 35q-76 31 -178 30q-139 0 -140 -36q0 -35 161 -95.5t253 -60.5q119 0 119 57q0 121 -354 406q-45 35 -109 92q-20 23 -20 45q0 45 79 70q66 20 152 20t174 -18q102 -23 102 -54q0 -18 -20 -36.5t-39 -18.5q-14 0 -33 39q-6 14 -67.5 25.5t-124.5 11.5 q-135 0 -135 -37q0 -20 90 -96q195 -164 262 -238q111 -117 110 -199q0 -119 -182 -118q-114 0 -327 88q377 -291 376 -428q0 -117 -172 -117q-154 0 -323.5 79t-169.5 146z" />
            <glyph
                unicode="&#xa8;"
                horiz-adv-x="303"
                d="M125 694q0 16 20 88q14 49 41 49q23 0 23 -24q0 -10 -27 -98q-12 -39 -32 -39q-25 0 -25 24zM236 666q0 -8 28 120q12 35 35 33t23 -24q0 -10 -14.5 -64.5t-16.5 -58.5q-6 -29 -31 -29t-24 23z" />
            <glyph
                unicode="&#xa9;"
                horiz-adv-x="1175"
                d="M70 465q0 215 152.5 366.5t365.5 151.5t365.5 -151.5t152.5 -366.5q0 -213 -152.5 -364.5t-365.5 -151.5t-365.5 151.5t-152.5 364.5zM104 465q0 -199 141.5 -340t342.5 -141q199 0 341 141t142 340q0 201 -142 342t-341 141t-341.5 -141t-142.5 -342zM328 471 q0 129 73.5 214t192.5 85q96 0 161.5 -57.5t71.5 -137.5h-36q-16 80 -76 123q-51 37 -119 37q-102 0 -164.5 -76.5t-62.5 -183.5q0 -119 67.5 -193.5t167.5 -74.5q154 0 193 143h37q-12 -74 -75 -127t-155 -53q-115 0 -195.5 84t-80.5 217z" />
            <glyph
                unicode="&#xaa;"
                horiz-adv-x="378"
                d="M18 543q0 59 70 166q75 115 141 127l-4 28q0 35 47 35q25 0 27 -53q2 -63 20 -162q20 -119 46 -134t26 -24q0 -29 -31 -28q-72 0 -106 194q-135 -190 -191 -190q-45 0 -45 41zM74 555q33 25 97.5 113t64.5 102q0 8 -7 8q-18 0 -71 -67q-59 -78 -84 -156z" />
            <glyph
                unicode="&#xab;"
                horiz-adv-x="757"
                d="M63 223q0 27 56 35q72 10 162 160q39 63 59 63q27 0 27 -28q0 -29 -54 -101q-61 -80 -131 -119q92 -23 148 -96q41 -55 41 -92q0 -29 -27 -29q-12 0 -43 54q-68 117 -180 125q-57 4 -58 28zM348 223q0 27 58 35q70 10 159 160q39 63 60 63q27 0 26 -28q0 -29 -53 -101 q-59 -80 -129 -119q92 -23 147 -96q41 -55 41 -92q0 -29 -28 -29q-10 0 -43 54q-70 117 -180 125q-57 4 -58 28z" />
            <glyph
                unicode="&#xac;"
                horiz-adv-x="872"
                d="M74 475v64h725v-355h-70v291h-655z" />
            <glyph
                unicode="&#xad;"
                horiz-adv-x="681"
                d="M80 285q-2 20 16 20q16 0 96 -2t93 -2q8 0 147 2h146q27 0 26 -33q0 -18 -8 -22t-43 -4q-14 0 -219 2h-215q-27 0 -33 5t-6 34z" />
            <glyph
                unicode="&#xae;"
                horiz-adv-x="1175"
                d="M328 725q0 109 76.5 184.5t183.5 75.5q109 0 184.5 -75.5t75.5 -184.5q0 -106 -76 -183t-184 -77q-106 0 -183 77t-77 183zM356 727q0 -96 68 -164.5t164 -68.5t163.5 68.5t67.5 164.5t-67.5 162.5t-163.5 66.5t-164 -67.5t-68 -161.5zM494 586v280h96q61 0 86.5 -21.5 t25.5 -60.5q0 -51 -49 -67q45 -20 45 -78q2 -20 11 -53h-33q-2 6 -5 39.5t-5 38.5q-12 41 -86 41h-58v-119h-28zM522 733h68q84 0 84 53q0 51 -88 52h-64v-105z" />
            <glyph
                unicode="&#xaf;"
                horiz-adv-x="303"
                d="M0 739q0 23 59 29l156 2q147 2 158 -16q2 -6 2 -17q0 -23 -45 -22q-23 0 -138.5 -2t-134.5 -2q-57 0 -57 28z" />
            <glyph
                unicode="&#xb0;"
                d="M96 872q0 88 61.5 147.5t145.5 59.5q86 0 146.5 -60.5t60.5 -146.5t-60.5 -146t-146.5 -60q-84 0 -145.5 60t-61.5 146zM145 872q0 -66 46.5 -111.5t111.5 -45.5q68 0 114 47t46 110q0 66 -47 113t-113 47q-63 0 -110.5 -46t-47.5 -114z" />
            <glyph
                unicode="&#xb1;"
                horiz-adv-x="872"
                d="M74 0v63h725v-63h-725zM74 397v64h327v266h70v-266h328v-64h-328v-266h-70v266h-327z" />
            <glyph
                unicode="&#xb2;"
                horiz-adv-x="530"
                d="M2 332q0 14 84 127q41 55 64 55q18 0 59 -41q186 188 186 299q0 18 -14 19q-33 0 -90 -48q-49 -41 -55 -55q-14 -39 -46 -39q-31 0 -30 25q0 27 80 96q90 78 155 78q68 0 68 -70q0 -135 -211 -346q131 -113 203 -113q18 0 41 27q8 16 24 16q25 0 25 -24q0 -29 -28 -49.5 t-68 -20.5q-105 0 -244 123q-117 -94 -162 -94q-10 0 -25.5 14.5t-15.5 20.5zM59 342q58 37 107 86l-23 18q-31 -33 -84 -104z" />
            <glyph
                unicode="&#xb3;"
                horiz-adv-x="530"
                d="M14 477q0 45 41 45q23 0 23 -20l-4 -21q0 -27 49 -82q66 -76 164 -75q76 0 124 31.5t48 82.5q0 59 -57.5 95t-129.5 36q-39 0 -69 -6q-37 -12 -39 -12q-8 0 -19.5 14.5t-11.5 24.5t37 24q59 23 131 64q96 55 96 84q0 20 -41 20q-98 0 -206 -96q-35 -31 -46 -31 q-27 0 -26 27q0 27 90 86q102 68 194 68q102 0 103 -70q0 -59 -154 -143q90 -12 151.5 -62.5t61.5 -122.5q0 -80 -75 -125q-66 -41 -158 -41q-123 0 -209 84q-68 68 -68 121z" />
            <glyph
                unicode="&#xb4;"
                horiz-adv-x="303"
                d="M133 676q0 18 78 80q86 68 108 67q25 1 25 -22q0 -10 -39 -41q-139 -106 -149 -107q-23 0 -23 23z" />
            <glyph
                unicode="&#xb6;"
                horiz-adv-x="757"
                d="M70 375q0 96 155 293q168 211 293 211q25 0 84 -17q39 -14 70 -14q6 0 30.5 5t28.5 5q29 0 29 -14q-8 -16 -23 -41q-102 -215 -102 -506q0 -104 20 -184q0 -4 8.5 -31t8.5 -33q0 -12 -17.5 -29.5t-29.5 -17.5q-47 0 -47 213q0 375 88 571q-25 1 -78 13q-39 -127 -58 -293 q-29 -254 -28 -377q0 -47 13 -78t13 -35q0 -12 -15 -25.5t-30 -13.5q-45 0 -45 103q0 199 47 538l4 29q-98 -131 -205.5 -225t-160.5 -94t-53 47zM133 406q0 -14 14 -15q47 0 209 173.5t162 234.5q0 27 -26 26q-72 0 -215.5 -176t-143.5 -243z" />
            <glyph
                unicode="&#xb7;"
                horiz-adv-x="378"
                d="M139 426q1 57 58 57t57 -57t-57 -57t-58 57z" />
            <glyph
                unicode="&#xb8;"
                horiz-adv-x="303"
                d="M2 -250q0 16 16 19q-8 0 29 -17q23 -10 43 -10q39 0 62.5 26.5t23.5 61.5q0 49 -43 49q-23 0 -52.5 -19.5t-35.5 -19.5q-14 0 -14 17q0 22 63 149l37 2q-31 -72 -49 -108q37 27 70 26q78 0 77 -92q0 -61 -42 -97t-95 -36q-33 0 -61.5 15.5t-28.5 33.5z" />
            <glyph
                unicode="&#xb9;"
                horiz-adv-x="530"
                d="M104 598q0 14 33 29q72 31 172 139q6 74 13 84q16 25 45 24q29 0 28 -26q-10 -51 -22 -121q-10 -96 -11 -238q0 -92 15 -127q20 -51 20 -40q0 -35 -43 -35q-57 0 -57 219q0 76 6 174q-137 -115 -172 -115q-27 0 -27 33z" />
            <glyph
                unicode="&#xba;"
                horiz-adv-x="342"
                d="M23 670q0 72 41.5 126t95.5 54q8 0 20 -6q31 6 35 6q51 0 92 -39q47 -45 47 -111q0 -70 -49 -127q-55 -66 -137 -65q-68 0 -106.5 46t-38.5 116zM92 686q0 -57 29 -89t61 -32q37 0 70 35t33 84q0 51 -27.5 83t-60.5 30q-18 -27 -35 -27q-8 0 -14.5 5t-14.5 9 q-8 0 -22 -24q-18 -33 -19 -74z" />
            <glyph
                unicode="&#xbb;"
                horiz-adv-x="757"
                d="M100 45q0 37 41 92q56 73 148 96q-70 39 -131 119q-53 72 -54 101q0 29 27 28q20 0 59 -63q49 -82 80 -109q41 -41 115 -57q25 -6 25 -27q0 -23 -21 -26q-2 -2 -39 -4q-111 -8 -180 -125q-33 -53 -43 -54q-27 0 -27 29zM385 45q0 37 41 92q55 73 147 96q-70 39 -131 119 q-51 72 -51 101t27 28q20 0 59 -63q49 -82 78 -111q41 -39 115 -55q25 -6 24 -27q0 -23 -18 -26q-4 -2 -39 -4q-111 -8 -180 -125q-33 -53 -43 -54q-29 0 -29 29z" />
            <glyph
                unicode="&#xbc;"
                horiz-adv-x="1705"
                d="M301 598q0 14 33 29q72 31 172 139q6 74 12 84q16 25 45 24q29 0 29 -26q-10 -51 -23 -121q-10 -96 -10 -238q0 -92 14 -127q20 -51 21 -40q0 -35 -43 -35q-57 0 -57 219q0 76 6 174q-137 -115 -172 -115q-27 0 -27 33zM522 -23q0 84 156 297q274 375 418 527 q12 12 71 12q16 0 17 -10q0 -20 -35 -43q-170 -184 -354 -434q-197 -268 -197 -326q0 -16 14.5 -25.5t14.5 -15.5q0 -31 -49 -31q-56 0 -56 49zM928 170q0 12 49 41q33 66 125 225q55 88 74.5 108.5t48.5 20.5q20 0 20 -22q0 -8 -20 -35q-100 -135 -170 -262q74 29 145 49 q12 115 23 127q20 27 53 27q18 -1 18 -19l-12 -47q-2 -14 -12 -70q100 20 143 21q68 0 68 -31q0 -18 -30 -36.5t-46 -18.5q-29 0 -19 33q-68 -6 -126 -23q-12 -70 -13 -139q0 -41 17 -64q0 -2 11 -14t11 -16q0 -14 -18.5 -25.5t-34.5 -11.5q-47 0 -47 131q0 59 8 121 q-92 -25 -168 -62t-74 -37q-25 0 -24 29z" />
            <glyph
                unicode="&#xbd;"
                horiz-adv-x="1705"
                d="M301 598q0 14 33 29q72 31 172 139q6 74 12 84q16 25 45 24q29 0 29 -26q-10 -51 -23 -121q-10 -96 -10 -238q0 -92 14 -127q20 -51 21 -40q0 -35 -43 -35q-57 0 -57 219q0 76 6 174q-137 -115 -172 -115q-27 0 -27 33zM522 -23q0 84 156 297q274 375 418 527 q12 12 71 12q16 0 17 -10q0 -20 -35 -43q-170 -184 -354 -434q-197 -268 -197 -326q0 -16 14.5 -25.5t14.5 -15.5q0 -31 -49 -31q-56 0 -56 49zM872 33q0 14 84 127q41 55 64 55q18 0 59 -41q186 188 187 299q0 18 -15 19q-33 0 -90 -48q-49 -41 -55 -55q-14 -39 -45 -39 t-31 25q0 27 80 96q90 78 156 78q68 0 67 -70q0 -135 -211 -346q131 -113 203 -113q18 0 41 27q8 16 25 16q25 0 24 -24q0 -29 -27.5 -49.5t-68.5 -20.5q-104 0 -244 123q-117 -94 -162 -94q-10 0 -25.5 14.5t-15.5 20.5zM930 43q57 37 106 86l-22 18q-31 -33 -84 -104z" />
            <glyph
                unicode="&#xbe;"
                horiz-adv-x="1705"
                d="M219 477q0 45 41 45q23 0 23 -20l-4 -21q0 -27 49 -82q66 -76 164 -75q76 0 124 31.5t48 82.5q0 59 -57.5 95t-129.5 36q-39 0 -69 -6q-37 -12 -39 -12q-8 0 -19.5 14.5t-11.5 24.5t37 24q59 23 131 64q96 55 96 84q0 20 -41 20q-94 0 -207 -96q-37 -31 -45 -31 q-27 0 -26 27q0 27 90 86q102 68 194 68q102 0 103 -70q0 -59 -154 -143q90 -12 152.5 -62.5t62.5 -122.5q0 -80 -78 -125q-66 -41 -157 -41q-123 0 -209 84q-68 68 -68 121zM600 -23q0 84 156 297q274 375 418 527q12 12 71 12q16 0 17 -10q0 -20 -35 -43 q-170 -184 -355 -434q-197 -268 -196 -326q0 -16 14.5 -25.5t14.5 -15.5q0 -31 -50 -31q-55 0 -55 49zM1006 170q0 12 49 41q33 66 125 225q55 88 74.5 108.5t48.5 20.5q20 0 20 -22q0 -8 -20 -35q-100 -135 -170 -262q74 29 145 49q12 115 22 127q20 27 54 27q18 -1 18 -19 l-12 -47q-2 -14 -12 -70q100 20 143 21q68 0 68 -31q0 -18 -30 -36.5t-46 -18.5q-29 0 -19 33q-68 -6 -127 -23q-12 -70 -12 -139q0 -41 16 -64q0 -2 11.5 -14t11.5 -16q0 -14 -18.5 -25.5t-34.5 -11.5q-47 0 -47 131q0 59 8 121q-92 -25 -168 -62t-74 -37q-25 0 -24 29z " />
            <glyph
                unicode="&#xbf;"
                horiz-adv-x="757"
                d="M68 98q0 35 141 119q152 88 258 88q47 0 79 -23.5t32 -60.5q0 -49 -52 -115q-33 -45 -170 -188q-197 -207 -196 -225q0 -16 28 -17q96 0 218 60q111 55 110 88q0 6 -10 10t-10 12q0 23 39 23q43 0 43 -41q0 -61 -154 -137q-131 -66 -244 -66q-104 1 -104 60q0 33 33 71 q25 29 159 164q127 127 185 197q45 55 45 86q0 49 -54 49q-106 0 -305 -137q-47 -33 -55 -33q-16 0 -16 16zM248 557q0 27 39 27q53 0 86 -62q25 -45 24 -92q0 -18 -22 -27q-6 0 -27.5 -7t-25.5 -7q-17 1 -17 17l2 51q-4 59 -37 78q-23 12 -22 22z" />
            <glyph
                unicode="&#xc0;"
                horiz-adv-x="1138"
                d="M-53 -78q8 8 28 27q207 178 353 502q113 252 112 362q0 37 -2 33q6 12 45 28q-20 82 -20 99q0 18 26.5 35.5t38.5 17.5q10 0 11 -16q0 -135 96 -463q100 53 217 88q96 29 137 29q27 0 27 -21q0 -20 -49 -31q-136 -26 -316 -112q86 -244 193 -377q94 -121 176 -121 q53 0 84 33q23 25 33 24q16 0 16 -14q0 -23 -33 -53q-43 -41 -110 -41q-225 0 -418 514q-209 -115 -281 -186q-133 -225 -239 -336q-37 -39 -78 -39q-47 0 -47 18zM360 381q80 53 215 135q-29 94 -71 279q-51 -231 -144 -414zM383 1221q0 23 24 22q20 0 109 -69 q78 -61 77 -78q0 -23 -22 -23q-14 0 -117 80q-23 16 -61 49q-10 7 -10 19z" />
            <glyph
                unicode="&#xc1;"
                horiz-adv-x="1138"
                d="M-53 -78q8 8 28 27q207 178 353 502q113 252 112 362q0 37 -2 33q6 12 45 28q-20 82 -20 99q0 18 26.5 35.5t38.5 17.5q10 0 11 -16q0 -135 96 -463q100 53 217 88q96 29 137 29q27 0 27 -21q0 -20 -49 -31q-136 -26 -316 -112q86 -244 193 -377q94 -121 176 -121 q53 0 84 33q23 25 33 24q16 0 16 -14q0 -23 -33 -53q-43 -41 -110 -41q-225 0 -418 514q-209 -115 -281 -186q-133 -225 -239 -336q-37 -39 -78 -39q-47 0 -47 18zM360 381q80 53 215 135q-29 94 -71 279q-51 -231 -144 -414zM428 1094q0 18 78 80q86 68 108 67q25 1 25 -22 q0 -10 -39 -41q-139 -106 -149 -107q-23 0 -23 23z" />
            <glyph
                unicode="&#xc2;"
                horiz-adv-x="1138"
                d="M-53 -78q8 8 28 27q207 178 353 502q113 252 112 362q0 37 -2 33q6 12 45 28q-20 82 -20 99q0 18 26.5 35.5t38.5 17.5q10 0 11 -16q0 -135 96 -463q100 53 217 88q96 29 137 29q27 0 27 -21q0 -20 -49 -31q-136 -26 -316 -112q86 -244 193 -377q94 -121 176 -121 q53 0 84 33q23 25 33 24q16 0 16 -14q0 -23 -33 -53q-43 -41 -110 -41q-225 0 -418 514q-209 -115 -281 -186q-133 -225 -239 -336q-37 -39 -78 -39q-47 0 -47 18zM360 381q80 53 215 135q-29 94 -71 279q-51 -231 -144 -414zM360 1073q0 23 139 131q-16 33 -16 35 q0 10 18.5 20.5t24.5 10.5t20 -33q41 -96 95 -131q29 -18 28 -29q0 -18 -22 -18q-33 0 -70 32.5t-53 65.5q-57 -47 -84 -71q-33 -31 -53 -31q-27 0 -27 18z" />
            <glyph
                unicode="&#xc3;"
                horiz-adv-x="1138"
                d="M-53 -78q8 8 28 27q207 178 353 502q113 252 112 362q0 37 -2 33q6 12 45 28q-20 82 -20 99q0 18 26.5 35.5t38.5 17.5q10 0 11 -16q0 -135 96 -463q100 53 217 88q96 29 137 29q27 0 27 -21q0 -20 -49 -31q-136 -26 -316 -112q86 -244 193 -377q94 -121 176 -121 q53 0 84 33q23 25 33 24q16 0 16 -14q0 -23 -33 -53q-43 -41 -110 -41q-225 0 -418 514q-209 -115 -281 -186q-133 -225 -239 -336q-37 -39 -78 -39q-47 0 -47 18zM334 1137q0 18 38 51t68 33q20 0 72 -31q68 -41 80 -41q18 0 49 26.5t41 26.5q26 1 18 -30q-8 -20 -34 -43 q-37 -33 -78 -33q-33 0 -109 49q-33 16 -45 16q-18 0 -57 -34q-14 -12 -25 -13q-18 0 -18 23zM360 381q80 53 215 135q-29 94 -71 279q-51 -231 -144 -414z" />
            <glyph
                unicode="&#xc4;"
                horiz-adv-x="1138"
                d="M-53 -78q8 8 28 27q207 178 353 502q113 252 112 362q0 37 -2 33q6 12 45 28q-20 82 -20 99q0 18 26.5 35.5t38.5 17.5q10 0 11 -16q0 -135 96 -463q100 53 217 88q96 29 137 29q27 0 27 -21q0 -20 -49 -31q-136 -26 -316 -112q86 -244 193 -377q94 -121 176 -121 q53 0 84 33q23 25 33 24q16 0 16 -14q0 -23 -33 -53q-43 -41 -110 -41q-225 0 -418 514q-209 -115 -281 -186q-133 -225 -239 -336q-37 -39 -78 -39q-47 0 -47 18zM360 381q80 53 215 135q-29 94 -71 279q-51 -231 -144 -414zM438 1112q0 16 20 88q14 49 41 49q23 0 23 -24 q0 -10 -27 -98q-12 -39 -32 -39q-25 0 -25 24zM549 1084q0 -8 28 120q12 35 35 33t23 -24q0 -10 -14.5 -64.5t-16.5 -58.5q-6 -29 -31 -29t-24 23z" />
            <glyph
                unicode="&#xc5;"
                horiz-adv-x="1138"
                d="M-53 -78q8 8 28 27q207 178 353 502q113 252 112 362q0 37 -2 33q6 12 45 28q-20 82 -20 99q0 18 26.5 35.5t38.5 17.5q10 0 11 -16q0 -135 96 -463q100 53 217 88q96 29 137 29q27 0 27 -21q0 -20 -49 -31q-136 -26 -316 -112q86 -244 193 -377q94 -121 176 -121 q53 0 84 33q23 25 33 24q16 0 16 -14q0 -23 -33 -53q-43 -41 -110 -41q-225 0 -418 514q-209 -115 -281 -186q-133 -225 -239 -336q-37 -39 -78 -39q-47 0 -47 18zM360 381q80 53 215 135q-29 94 -71 279q-51 -231 -144 -414zM406 1153q0 57 38 98t75 41q8 0 28 -10q2 2 5 6 t8.5 7.5t15.5 3.5q27 0 49.5 -23.5t22.5 -62.5q0 -57 -37 -105q-43 -51 -109 -51q-96 0 -96 96zM461 1157q0 -49 47 -49q43 0 68 37q18 29 18 61q0 41 -28 41q-25 -10 -23 -10q-14 4 -18 4q-18 0 -41 -24.5t-23 -59.5z" />
            <glyph
                unicode="&#xc6;"
                horiz-adv-x="1251"
                d="M-47 14q0 -2 55 62q291 322 357 405q150 186 231 307q14 125 22 132q18 14 62 14q29 0 29 -16q0 -14 -10.5 -39t-14.5 -54q172 94 342 95q119 0 119 -50q0 -20 -11.5 -42.5t-25.5 -22.5q-8 0 -28.5 29.5t-63.5 29.5q-86 0 -192.5 -39t-147.5 -80q-14 -70 -14 -278 q223 57 425 57q57 0 58 -28q0 -45 -33 -45q-4 0 -24.5 5t-24.5 5q-33 8 -74 8q-137 0 -327 -53q0 -168 20 -291q12 -70 63 -70q96 0 367 148q68 37 78 37q20 0 20 -23q0 -14 -34 -35q-340 -201 -471 -200q-43 0 -65 26.5t-34 102.5q-18 125 -16 282q-228 -67 -316 -104 q-55 -66 -202 -246q-45 -55 -80 -55q-39 0 -39 26zM344 371q49 17 246 78q0 141 6 221q-78 -90 -252 -299z" />
            <glyph
                unicode="&#xc7;"
                horiz-adv-x="757"
                d="M76 248q0 244 194 495q186 242 346 242q72 0 72 -63q0 -84 -86 -178.5t-113 -94.5q-25 0 -24 25q0 10 35 41q131 113 131 180q0 33 -33 33q-119 0 -283 -221q-172 -231 -172 -437q0 -96 45 -155q51 -70 150 -70q133 0 266 133q25 27 47 55q37 41 49 41q18 0 19 -22 q0 -23 -52.5 -82t-121.5 -109q-106 -76 -236 -81q-12 -27 -39 -80q43 27 70 26q80 0 80 -92q0 -61 -42 -97t-95 -36q-33 0 -61.5 15.5t-28.5 33.5q0 16 16 19q-8 0 29 -17q23 -10 43 -10q39 0 62.5 26.5t23.5 61.5q0 49 -43 49q-23 0 -52.5 -19.5t-35.5 -19.5q-14 0 -15 17 q0 4 51 123q-117 12 -166 120q-31 68 -30 148z" />
            <glyph
                unicode="&#xc8;"
                horiz-adv-x="985"
                d="M76 190q0 113 67 256q78 170 222 310q197 193 356 192q43 0 76.5 -14t33.5 -35q0 -16 -24.5 -32.5t-36.5 -16.5q-10 0 -27.5 17.5t-48.5 17.5q-117 0 -282 -164q-188 -184 -254 -424q92 55 131 76q68 35 151 69q133 53 232 54q76 0 76 -29q0 -25 -39 -25q-123 0 -217 -34 q-80 -29 -144 -62q-125 -61 -194 -127q10 -174 192 -174q121 0 301 92q133 70 225 146q49 41 62 41q18 0 18 -15q0 -31 -100 -106q-111 -84 -240 -142q-162 -72 -290 -71q-102 0 -158 35q-88 55 -88 165zM545 1221q0 23 24 22q20 0 109 -69q78 -61 77 -78q0 -23 -22 -23 q-14 0 -117 80q-23 16 -61 49q-10 7 -10 19z" />
            <glyph
                unicode="&#xc9;"
                horiz-adv-x="985"
                d="M76 190q0 113 67 256q78 170 222 310q197 193 356 192q43 0 76.5 -14t33.5 -35q0 -16 -24.5 -32.5t-36.5 -16.5q-10 0 -27.5 17.5t-48.5 17.5q-117 0 -282 -164q-188 -184 -254 -424q92 55 131 76q68 35 151 69q133 53 232 54q76 0 76 -29q0 -25 -39 -25q-123 0 -217 -34 q-80 -29 -144 -62q-125 -61 -194 -127q10 -174 192 -174q121 0 301 92q133 70 225 146q49 41 62 41q18 0 18 -15q0 -31 -100 -106q-111 -84 -240 -142q-162 -72 -290 -71q-102 0 -158 35q-88 55 -88 165zM602 1094q0 18 78 80q86 68 108 67q25 1 25 -22q0 -10 -39 -41 q-139 -106 -149 -107q-23 0 -23 23z" />
            <glyph
                unicode="&#xca;"
                horiz-adv-x="985"
                d="M76 190q0 113 67 256q78 170 222 310q197 193 356 192q43 0 76.5 -14t33.5 -35q0 -16 -24.5 -32.5t-36.5 -16.5q-10 0 -27.5 17.5t-48.5 17.5q-117 0 -282 -164q-188 -184 -254 -424q92 55 131 76q68 35 151 69q133 53 232 54q76 0 76 -29q0 -25 -39 -25q-123 0 -217 -34 q-80 -29 -144 -62q-125 -61 -194 -127q10 -174 192 -174q121 0 301 92q133 70 225 146q49 41 62 41q18 0 18 -15q0 -31 -100 -106q-111 -84 -240 -142q-162 -72 -290 -71q-102 0 -158 35q-88 55 -88 165zM543 1073q0 23 139 131q-16 33 -16 35q0 10 18.5 20.5t24.5 10.5 t20 -33q41 -96 95 -131q29 -18 28 -29q0 -18 -22 -18q-33 0 -70 32.5t-53 65.5q-57 -47 -84 -71q-33 -31 -53 -31q-27 0 -27 18z" />
            <glyph
                unicode="&#xcb;"
                horiz-adv-x="985"
                d="M76 190q0 113 67 256q78 170 222 310q197 193 356 192q43 0 76.5 -14t33.5 -35q0 -16 -24.5 -32.5t-36.5 -16.5q-10 0 -27.5 17.5t-48.5 17.5q-117 0 -282 -164q-188 -184 -254 -424q92 55 131 76q68 35 151 69q133 53 232 54q76 0 76 -29q0 -25 -39 -25q-123 0 -217 -34 q-80 -29 -144 -62q-125 -61 -194 -127q10 -174 192 -174q121 0 301 92q133 70 225 146q49 41 62 41q18 0 18 -15q0 -31 -100 -106q-111 -84 -240 -142q-162 -72 -290 -71q-102 0 -158 35q-88 55 -88 165zM559 1112q0 16 20 88q14 49 41 49q23 0 23 -24q0 -10 -27 -98 q-12 -39 -32 -39q-25 0 -25 24zM670 1084q0 -8 28 120q12 35 35 33t23 -24q0 -10 -14.5 -64.5t-16.5 -58.5q-6 -29 -31 -29t-24 23z" />
            <glyph
                unicode="&#xcc;"
                horiz-adv-x="378"
                d="M129 1221q0 23 24 22q20 0 109 -69q78 -61 77 -78q0 -23 -22 -23q-14 0 -117 80q-23 16 -61 49q-10 7 -10 19zM166 530q0 109 6 258q6 131 9 136.5t35 23t46 17.5q20 0 21 -21q0 12 -17 -72q-32 -164 -30 -342q2 -188 6 -266q10 -145 34 -188q2 -2 15.5 -17.5t13.5 -19.5 q0 -8 -21.5 -27.5t-35.5 -19.5q-41 0 -61.5 113.5t-20.5 424.5z" />
            <glyph
                unicode="&#xcd;"
                horiz-adv-x="378"
                d="M131 1094q0 18 78 80q86 68 108 67q25 1 25 -22q0 -10 -39 -41q-139 -106 -149 -107q-23 0 -23 23zM166 530q0 109 6 258q6 131 9 136.5t35 23t46 17.5q20 0 21 -21q0 12 -17 -72q-32 -164 -30 -342q2 -188 6 -266q10 -145 34 -188q2 -2 15.5 -17.5t13.5 -19.5 q0 -8 -21.5 -27.5t-35.5 -19.5q-41 0 -61.5 113.5t-20.5 424.5z" />
            <glyph
                unicode="&#xce;"
                horiz-adv-x="378"
                d="M80 1073q0 23 139 131q-16 33 -16 35q0 10 18.5 20.5t24.5 10.5t20 -33q41 -96 95 -131q29 -18 28 -29q0 -18 -22 -18q-33 0 -70 32.5t-53 65.5q-57 -47 -84 -71q-33 -31 -53 -31q-27 0 -27 18zM166 530q0 109 6 258q6 131 9 136.5t35 23t46 17.5q20 0 21 -21 q0 12 -17 -72q-32 -164 -30 -342q2 -188 6 -266q10 -145 34 -188q2 -2 15.5 -17.5t13.5 -19.5q0 -8 -21.5 -27.5t-35.5 -19.5q-41 0 -61.5 113.5t-20.5 424.5z" />
            <glyph
                unicode="&#xcf;"
                horiz-adv-x="378"
                d="M166 530q0 109 6 258q6 131 9 136.5t35 23t46 17.5q20 0 21 -21q0 12 -17 -72q-32 -164 -30 -342q2 -188 6 -266q10 -145 34 -188q2 -2 15.5 -17.5t13.5 -19.5q0 -8 -21.5 -27.5t-35.5 -19.5q-41 0 -61.5 113.5t-20.5 424.5zM172 1112q0 16 20 88q14 49 41 49 q23 0 23 -24q0 -10 -27 -98q-12 -39 -32 -39q-25 0 -25 24zM283 1084q0 -8 28 120q12 35 35 33t23 -24q0 -10 -14.5 -64.5t-16.5 -58.5q-6 -29 -31 -29t-24 23z" />
            <glyph
                unicode="&#xd0;"
                horiz-adv-x="1366"
                d="M78 780q0 55 107.5 113.5t293.5 58.5q119 0 262 -39q80 164 119 215q31 39 64 39q47 0 47 -55q0 -25 -19 -25q-4 0 -16 9.5t-14 9.5q-10 0 -27 -29q-61 -106 -96 -184q182 -76 295 -172q215 -186 215 -389q0 -147 -132.5 -241.5t-326.5 -94.5q-242 0 -444 131 q-37 -72 -89 -166q-31 -55 -86 -135q-20 -23 -38 -23q-39 0 -39 37q0 -2 18 101q25 137 25 229q0 137 -15 244q-12 92 -12 88q0 25 37 24q18 0 24.5 -10t20.5 -57q45 -152 139 -242q70 135 162 315q-51 4 -119 9q-25 0 -24 18q0 27 32 27q33 0 131 -8q16 29 89 167 q25 49 61 125q-127 37 -242 37q-274 0 -358 -137q-12 -20 -21 -20q-25 0 -24 30zM213 -109q47 76 147 269q-72 63 -118 157q6 -61 6 -139q0 -156 -35 -287zM432 178q213 -131 432 -131q166 0 269 84q96 78 96 193q0 158 -111.5 297t-341.5 227l-139 -279q145 -16 252 -57 q88 -35 88 -55q0 -8 -15.5 -20.5t-25.5 -12.5q6 0 -76 39q-94 45 -244 65z" />
            <glyph
                unicode="&#xd1;"
                horiz-adv-x="1478"
                d="M16 111q0 92 15 131q6 27 22 26q14 0 15 -16q0 -14 -4.5 -52t-4.5 -55q0 -135 58 -211q47 -63 143 -63q291 0 453 537q86 283 98 417q-16 35 -76 117q-14 18 -14 23q0 10 28.5 25.5t38.5 15.5q6 0 37 -54q80 -141 248 -483q113 -227 178 -336q-6 43 -6 100q0 205 43 472 q39 250 82 352q12 29 78 28q8 0 8 -6q0 6 -29 -82q-115 -354 -114 -800q0 -129 13 -160l13 -31q0 -8 -24.5 -26.5t-36.5 -18.5q-23 0 -197 340q-108 215 -217 430q-74 -332 -151 -510q-176 -406 -463 -405q-129 0 -191 106q-43 78 -43 189zM932 1137q0 18 38 51t68 33 q20 0 72 -31q68 -41 80 -41q18 0 49 26.5t41 26.5q26 1 18 -30q-8 -20 -34 -43q-37 -33 -78 -33q-33 0 -109 49q-33 16 -45 16q-18 0 -57 -34q-14 -12 -25 -13q-18 0 -18 23z" />
            <glyph
                unicode="&#xd2;"
                horiz-adv-x="1214"
                d="M61 362q0 248 211 441q195 180 402 180q152 0 151 -82q0 -23 -23.5 -39t-41.5 -16q-12 0 -35 33q-39 55 -102 55q-137 0 -297 -154q-182 -174 -183 -389q0 -160 103 -270q109 -119 280 -119q188 0 369 139q197 152 197 346q0 113 -82 185q-96 86 -281 86q-152 0 -272 -43 q-4 0 -31 -11.5t-33 -11.5q-8 0 -8 8q0 23 100 58q117 39 248 39q176 0 301 -72q146 -86 146 -233q0 -186 -213 -361q-221 -182 -484 -182q-217 0 -331 145q-90 115 -91 268zM541 1221q0 23 24 22q20 0 109 -69q78 -61 77 -78q0 -23 -22 -23q-14 0 -117 80q-23 16 -61 49 q-10 7 -10 19z" />
            <glyph
                unicode="&#xd3;"
                horiz-adv-x="1214"
                d="M61 362q0 248 211 441q195 180 402 180q152 0 151 -82q0 -23 -23.5 -39t-41.5 -16q-12 0 -35 33q-39 55 -102 55q-137 0 -297 -154q-182 -174 -183 -389q0 -160 103 -270q109 -119 280 -119q188 0 369 139q197 152 197 346q0 113 -82 185q-96 86 -281 86q-152 0 -272 -43 q-4 0 -31 -11.5t-33 -11.5q-8 0 -8 8q0 23 100 58q117 39 248 39q176 0 301 -72q146 -86 146 -233q0 -186 -213 -361q-221 -182 -484 -182q-217 0 -331 145q-90 115 -91 268zM616 1094q0 18 78 80q86 68 108 67q25 1 25 -22q0 -10 -39 -41q-139 -106 -149 -107q-23 0 -23 23 z" />
            <glyph
                unicode="&#xd4;"
                horiz-adv-x="1214"
                d="M61 362q0 248 211 441q195 180 402 180q152 0 151 -82q0 -23 -23.5 -39t-41.5 -16q-12 0 -35 33q-39 55 -102 55q-137 0 -297 -154q-182 -174 -183 -389q0 -160 103 -270q109 -119 280 -119q188 0 369 139q197 152 197 346q0 113 -82 185q-96 86 -281 86q-152 0 -272 -43 q-4 0 -31 -11.5t-33 -11.5q-8 0 -8 8q0 23 100 58q117 39 248 39q176 0 301 -72q146 -86 146 -233q0 -186 -213 -361q-221 -182 -484 -182q-217 0 -331 145q-90 115 -91 268zM563 1073q0 23 139 131q-16 33 -16 35q0 10 18.5 20.5t24.5 10.5t20 -33q41 -96 95 -131 q29 -18 28 -29q0 -18 -22 -18q-33 0 -70 32.5t-53 65.5q-57 -47 -84 -71q-33 -31 -53 -31q-27 0 -27 18z" />
            <glyph
                unicode="&#xd5;"
                horiz-adv-x="1214"
                d="M61 362q0 248 211 441q195 180 402 180q152 0 151 -82q0 -23 -23.5 -39t-41.5 -16q-12 0 -35 33q-39 55 -102 55q-137 0 -297 -154q-182 -174 -183 -389q0 -160 103 -270q109 -119 280 -119q188 0 369 139q197 152 197 346q0 113 -82 185q-96 86 -281 86q-152 0 -272 -43 q-4 0 -31 -11.5t-33 -11.5q-8 0 -8 8q0 23 100 58q117 39 248 39q176 0 301 -72q146 -86 146 -233q0 -186 -213 -361q-221 -182 -484 -182q-217 0 -331 145q-90 115 -91 268zM514 1137q0 18 38 51t68 33q20 0 72 -31q68 -41 80 -41q18 0 49 26.5t41 26.5q26 1 18 -30 q-8 -20 -34 -43q-37 -33 -78 -33q-33 0 -109 49q-33 16 -45 16q-18 0 -57 -34q-14 -12 -25 -13q-18 0 -18 23z" />
            <glyph
                unicode="&#xd6;"
                horiz-adv-x="1214"
                d="M61 362q0 248 211 441q195 180 402 180q152 0 151 -82q0 -23 -23.5 -39t-41.5 -16q-12 0 -35 33q-39 55 -102 55q-137 0 -297 -154q-182 -174 -183 -389q0 -160 103 -270q109 -119 280 -119q188 0 369 139q197 152 197 346q0 113 -82 185q-96 86 -281 86q-152 0 -272 -43 q-4 0 -31 -11.5t-33 -11.5q-8 0 -8 8q0 23 100 58q117 39 248 39q176 0 301 -72q146 -86 146 -233q0 -186 -213 -361q-221 -182 -484 -182q-217 0 -331 145q-90 115 -91 268zM612 1112q0 16 20 88q14 49 41 49q23 0 23 -24q0 -10 -27 -98q-12 -39 -32 -39q-25 0 -25 24z M723 1084q0 -8 28 120q12 35 35 33t23 -24q0 -10 -14.5 -64.5t-16.5 -58.5q-6 -29 -31 -29t-24 23z" />
            <glyph
                unicode="&#xd7;"
                horiz-adv-x="872"
                d="M94 72l291 293l-291 290l51 52l291 -293l291 293l51 -52l-293 -290l293 -293l-51 -49l-291 290l-291 -290z" />
            <glyph
                unicode="&#xd8;"
                horiz-adv-x="1214"
                d="M59 365q0 244 211 438q195 180 402 180q152 0 151 -82q0 -23 -23.5 -39t-41.5 -16q-12 0 -35 33q-37 55 -102 55q-137 0 -297 -154q-182 -174 -183 -389q0 -145 97 -262q311 244 757 553q-90 76 -268 76q-152 0 -272 -43q-4 0 -31 -11.5t-33 -11.5q-8 0 -8 8q0 23 100 58 q117 39 248 39q168 0 313 -80q61 39 91 62.5t47 23.5q25 0 24 -23q0 -18 -33.5 -41.5t-80.5 -56.5q86 -80 86 -180q0 -201 -219.5 -377t-477.5 -176q-162 0 -276 88q-14 -10 -82 -68q-20 -16 -31 -16q-27 0 -26 29q0 14 14 24q63 49 86 68q-106 119 -107 291zM274 92 q98 -90 250 -90q193 0 373 143q193 152 193 336q-1 92 -54 164q-516 -356 -762 -553z" />
            <glyph
                unicode="&#xd9;"
                horiz-adv-x="1290"
                d="M47 608q0 147 203 228q135 53 338 71q0 57 5 64.5t31.5 21t43.5 13.5q16 0 16 -17q0 12 -14 -92q-90 -653 -90 -899q0 -86 24 -86q63 0 250 350q180 342 180 430q0 27 -30 236q0 14 33.5 29.5t47.5 15.5q12 0 15 -117q6 -606 94 -766q12 -25 57 -41q23 -8 23 -14 q0 -8 -19.5 -35t-35.5 -27q-59 0 -101 101q-45 115 -76 473q-150 -371 -303 -580q-82 -113 -157 -112q-41 0 -54.5 26.5t-13.5 91.5q0 109 21 351q23 223 51 522q-184 -4 -320 -55q-168 -61 -168 -170q0 -41 23.5 -71t46 -30t22.5 -12q0 -47 -34 -47q-35 0 -72 43t-37 104z M740 1221q0 23 24 22q20 0 109 -69q78 -61 77 -78q0 -23 -22 -23q-14 0 -117 80q-23 16 -61 49q-10 7 -10 19z" />
            <glyph
                unicode="&#xda;"
                horiz-adv-x="1290"
                d="M47 608q0 147 203 228q135 53 338 71q0 57 5 64.5t31.5 21t43.5 13.5q16 0 16 -17q0 12 -14 -92q-90 -653 -90 -899q0 -86 24 -86q63 0 250 350q180 342 180 430q0 27 -30 236q0 14 33.5 29.5t47.5 15.5q12 0 15 -117q6 -606 94 -766q12 -25 57 -41q23 -8 23 -14 q0 -8 -19.5 -35t-35.5 -27q-59 0 -101 101q-45 115 -76 473q-150 -371 -303 -580q-82 -113 -157 -112q-41 0 -54.5 26.5t-13.5 91.5q0 109 21 351q23 223 51 522q-184 -4 -320 -55q-168 -61 -168 -170q0 -41 23.5 -71t46 -30t22.5 -12q0 -47 -34 -47q-35 0 -72 43t-37 104z M819 1094q0 18 78 80q86 68 108 67q25 1 25 -22q0 -10 -39 -41q-139 -106 -149 -107q-23 0 -23 23z" />
            <glyph
                unicode="&#xdb;"
                horiz-adv-x="1290"
                d="M47 608q0 147 203 228q135 53 338 71q0 57 5 64.5t31.5 21t43.5 13.5q16 0 16 -17q0 12 -14 -92q-90 -653 -90 -899q0 -86 24 -86q63 0 250 350q180 342 180 430q0 27 -30 236q0 14 33.5 29.5t47.5 15.5q12 0 15 -117q6 -606 94 -766q12 -25 57 -41q23 -8 23 -14 q0 -8 -19.5 -35t-35.5 -27q-59 0 -101 101q-45 115 -76 473q-150 -371 -303 -580q-82 -113 -157 -112q-41 0 -54.5 26.5t-13.5 91.5q0 109 21 351q23 223 51 522q-184 -4 -320 -55q-168 -61 -168 -170q0 -41 23.5 -71t46 -30t22.5 -12q0 -47 -34 -47q-35 0 -72 43t-37 104z M719 1073q0 23 139 131q-16 33 -16 35q0 10 18.5 20.5t24.5 10.5t20 -33q41 -96 95 -131q29 -18 28 -29q0 -18 -22 -18q-33 0 -70 32.5t-53 65.5q-57 -47 -84 -71q-33 -31 -53 -31q-27 0 -27 18z" />
            <glyph
                unicode="&#xdc;"
                horiz-adv-x="1290"
                d="M47 608q0 147 203 228q135 53 338 71q0 57 5 64.5t31.5 21t43.5 13.5q16 0 16 -17q0 12 -14 -92q-90 -653 -90 -899q0 -86 24 -86q63 0 250 350q180 342 180 430q0 27 -30 236q0 14 33.5 29.5t47.5 15.5q12 0 15 -117q6 -606 94 -766q12 -25 57 -41q23 -8 23 -14 q0 -8 -19.5 -35t-35.5 -27q-59 0 -101 101q-45 115 -76 473q-150 -371 -303 -580q-82 -113 -157 -112q-41 0 -54.5 26.5t-13.5 91.5q0 109 21 351q23 223 51 522q-184 -4 -320 -55q-168 -61 -168 -170q0 -41 23.5 -71t46 -30t22.5 -12q0 -47 -34 -47q-35 0 -72 43t-37 104z M791 1112q0 16 20 88q14 49 41 49q23 0 23 -24q0 -10 -27 -98q-12 -39 -32 -39q-25 0 -25 24zM902 1084q0 -8 28 120q12 35 35 33t23 -24q0 -10 -14.5 -64.5t-16.5 -58.5q-6 -29 -31 -29t-24 23z" />
            <glyph
                unicode="&#xdd;"
                horiz-adv-x="1099"
                d="M49 664q0 156 469 241q-8 16 -8 29q0 12 35 24q27 8 39 9q16 0 18 -41q4 -182 10 -424q8 -164 25 -398q0 -23 12 -22q8 0 45 59q123 197 201 459q-6 23 -37 88q-2 4 -11 22.5t-9 20.5q0 10 32.5 27.5t40.5 17.5q16 0 39 -84q59 -223 60 -475q0 -242 -74 -438 q-76 -203 -246 -203q-219 0 -342 270q-61 137 -61 256q0 41 63 41q18 0 19 -18q0 -6 -3.5 -34t-3.5 -32q0 -170 103.5 -302t228.5 -132q154 0 217 244q37 139 37 311q0 184 -33 305q-78 -219 -190 -401q-51 -82 -98 -82q-31 0 -41.5 23.5t-16.5 105.5q-16 305 -43 713 q-123 -2 -262 -51q-154 -55 -153 -115q0 -25 30.5 -35t30.5 -29q0 -33 -41 -32q-33 0 -57.5 23.5t-24.5 58.5zM700 1094q0 18 78 80q86 68 108 67q25 1 25 -22q0 -10 -39 -41q-139 -106 -149 -107q-23 0 -23 23z" />
            <glyph
                unicode="&#xde;"
                horiz-adv-x="681"
                d="M104 344q0 258 31 518q10 80 74 80q25 0 24 -16q-8 -43 -8 -41q-8 -44 -18 -105q215 57 309 58q113 0 164 -50q35 -33 35 -75q0 -63 -76 -162q-66 -84 -141 -143q-141 -111 -324 -129q0 -252 59 -252q14 0 41 18q6 6 17 6q20 0 20 -18q0 -20 -27.5 -41t-60.5 -21 q-78 0 -102 123q-16 84 -17 250zM174 332q168 23 289 121q66 53 117 120q61 80 61 132q0 78 -139 77q-129 0 -305 -57q-23 -164 -23 -393z" />
            <glyph
                unicode="&#xdf;"
                horiz-adv-x="796"
                d="M-20 -401q0 102 45 335q55 283 131 476q82 207 217 356t241 149q61 0 62 -63q0 -121 -324 -358q31 6 72 6q129 0 228.5 -62.5t99.5 -150.5q0 -98 -119 -193q-127 -100 -287 -100q-109 0 -164 41q-41 29 -41 61q0 20 11.5 43t27.5 23q12 0 15 -31q14 -80 161 -80 q141 0 240 78q88 70 88 152q0 68 -85 118t-183 50q-125 0 -213 -68q-45 -125 -88 -311q-49 -220 -49 -353v-114q-2 -10 -25 -21.5t-35 -11.5q-27 0 -26 29zM244 467q123 86 225 184q133 125 133 183q0 23 -22 22q-47 0 -152 -111q-114 -124 -184 -278z" />
            <glyph
                unicode="&#xe0;"
                d="M39 47q0 104 123 289.5t205 185.5q6 0 14 -4q-14 72 -14 70q0 18 24 28q18 10 35 11q23 0 23 -29q0 -135 30 -307q33 -184 70 -234q0 -2 22.5 -18t22.5 -21q0 -27 -31 -26q-66 0 -100 104q-39 117 -57 258q-57 -96 -142 -204q-119 -152 -172 -152t-53 49zM98 76 q0 -12 8 -13q31 0 155 166t124 203q0 31 -29 31q-53 0 -155.5 -164t-102.5 -223zM279 803q0 23 24 22q20 0 109 -69q78 -61 77 -78q0 -23 -22 -23q-14 0 -117 80q-23 16 -61 49q-10 7 -10 19z" />
            <glyph
                unicode="&#xe1;"
                d="M39 47q0 104 123 289.5t205 185.5q6 0 14 -4q-14 72 -14 70q0 18 24 28q18 10 35 11q23 0 23 -29q0 -135 30 -307q33 -184 70 -234q0 -2 22.5 -18t22.5 -21q0 -27 -31 -26q-66 0 -100 104q-39 117 -57 258q-57 -96 -142 -204q-119 -152 -172 -152t-53 49zM98 76 q0 -12 8 -13q31 0 155 166t124 203q0 31 -29 31q-53 0 -155.5 -164t-102.5 -223zM274 676q0 18 78 80q86 68 108 67q25 1 25 -22q0 -10 -39 -41q-139 -106 -149 -107q-23 0 -23 23z" />
            <glyph
                unicode="&#xe2;"
                d="M39 47q0 104 123 289.5t205 185.5q6 0 14 -4q-14 72 -14 70q0 18 24 28q18 10 35 11q23 0 23 -29q0 -135 30 -307q33 -184 70 -234q0 -2 22.5 -18t22.5 -21q0 -27 -31 -26q-66 0 -100 104q-39 117 -57 258q-57 -96 -142 -204q-119 -152 -172 -152t-53 49zM98 76 q0 -12 8 -13q31 0 155 166t124 203q0 31 -29 31q-53 0 -155.5 -164t-102.5 -223zM248 655q0 23 139 131q-16 33 -16 35q0 10 18.5 20.5t24.5 10.5t20 -33q41 -96 95 -131q29 -18 28 -29q0 -18 -22 -18q-33 0 -70 32.5t-53 65.5q-57 -47 -84 -71q-33 -31 -53 -31 q-27 0 -27 18z" />
            <glyph
                unicode="&#xe3;"
                d="M39 47q0 104 123 289.5t205 185.5q6 0 14 -4q-14 72 -14 70q0 18 24 28q18 10 35 11q23 0 23 -29q0 -135 30 -307q33 -184 70 -234q0 -2 22.5 -18t22.5 -21q0 -27 -31 -26q-66 0 -100 104q-39 117 -57 258q-57 -96 -142 -204q-119 -152 -172 -152t-53 49zM98 76 q0 -12 8 -13q31 0 155 166t124 203q0 31 -29 31q-53 0 -155.5 -164t-102.5 -223zM205 719q0 18 38 51t68 33q20 0 72 -31q68 -41 80 -41q18 0 49 26.5t41 26.5q26 1 18 -30q-8 -20 -34 -43q-37 -33 -78 -33q-33 0 -109 49q-33 16 -45 16q-18 0 -57 -34q-14 -12 -25 -13 q-18 0 -18 23z" />
            <glyph
                unicode="&#xe4;"
                d="M39 47q0 104 123 289.5t205 185.5q6 0 14 -4q-14 72 -14 70q0 18 24 28q18 10 35 11q23 0 23 -29q0 -135 30 -307q33 -184 70 -234q0 -2 22.5 -18t22.5 -21q0 -27 -31 -26q-66 0 -100 104q-39 117 -57 258q-57 -96 -142 -204q-119 -152 -172 -152t-53 49zM98 76 q0 -12 8 -13q31 0 155 166t124 203q0 31 -29 31q-53 0 -155.5 -164t-102.5 -223zM307 694q0 16 20 88q14 49 41 49q23 0 23 -24q0 -10 -27 -98q-12 -39 -32 -39q-25 0 -25 24zM418 666q0 -8 28 120q12 35 35 33t23 -24q0 -10 -14.5 -64.5t-16.5 -58.5q-6 -29 -31 -29t-24 23 z" />
            <glyph
                unicode="&#xe5;"
                d="M39 47q0 104 123 289.5t205 185.5q6 0 14 -4q-14 72 -14 70q0 18 24 28q18 10 35 11q23 0 23 -29q0 -135 30 -307q33 -184 70 -234q0 -2 22.5 -18t22.5 -21q0 -27 -31 -26q-66 0 -100 104q-39 117 -57 258q-57 -96 -142 -204q-119 -152 -172 -152t-53 49zM98 76 q0 -12 8 -13q31 0 155 166t124 203q0 31 -29 31q-53 0 -155.5 -164t-102.5 -223zM285 735q0 57 38 98t75 41q8 0 28 -10q2 2 5 6t8.5 7.5t15.5 3.5q27 0 49.5 -23.5t22.5 -62.5q0 -57 -37 -105q-43 -51 -109 -51q-96 0 -96 96zM340 739q0 -49 47 -49q43 0 68 37q18 29 18 61 q0 41 -28 41q-25 -10 -23 -10q-14 4 -18 4q-18 0 -41 -24.5t-23 -59.5z" />
            <glyph
                unicode="&#xe6;"
                horiz-adv-x="872"
                d="M41 51q0 80 146.5 253t238.5 173q17 0 31 -14l-4 69q-2 39 59 39q27 0 27 -12q0 -6 -11 -61q-10 -61 -14 -158q109 225 227 225q78 0 78 -67q0 -49 -59 -123q-84 -104 -244 -168q6 -156 100 -156q61 0 166 66q37 23 45 22q18 0 19 -18q0 -27 -88 -74q-94 -51 -162 -51 q-141 0 -141 223q0 29 2 92q-129 -154 -217 -219q-100 -90 -150 -90q-49 0 -49 49zM102 74q0 -10 11 -11q31 0 181 145.5t150 184.5q1 27 -30 27q-57 0 -184.5 -147.5t-127.5 -198.5zM528 268q90 37 166 115q66 70 66 109q0 22 -29 22q-41 0 -113 -100q-53 -74 -90 -146z " />
            <glyph
                unicode="&#xe7;"
                horiz-adv-x="417"
                d="M33 -250q0 16 18 19q-4 0 29 -17q20 -10 43 -10q39 0 62.5 26.5t23.5 61.5q0 49 -43 49q-23 0 -53.5 -19.5t-34.5 -19.5q-14 0 -15 17q0 10 31 80q10 25 25 55q-78 25 -78 149q0 143 90 280.5t176 137.5q49 0 49 -35q0 -20 -21.5 -43.5t-37.5 -23.5q-14 0 -14 10 q0 4 7 18.5t7 16.5q0 6 -8 6q-37 0 -105 -109q-74 -125 -73 -245q0 -111 55 -111q61 0 139 100l68 86q12 12 20 13q16 0 17 -17q0 -35 -80 -131q-94 -109 -176 -106q-12 -31 -41 -88q43 27 69 26q78 0 78 -92q0 -61 -42 -97t-93 -36q-33 0 -62.5 15.5t-29.5 33.5z" />
            <glyph
                unicode="&#xe8;"
                horiz-adv-x="454"
                d="M70 182q0 131 51 252q59 143 155 144q68 0 68 -72t-55 -158q-60 -92 -152 -151q-8 -154 88 -154q63 0 178 92q39 31 50 31q14 0 14 -16q0 -18 -41 -56q-119 -106 -211 -106q-145 0 -145 194zM137 264q55 37 101.5 111t46.5 112q0 33 -25 33q-37 0 -76 -92 q-35 -80 -47 -164zM164 803q0 23 24 22q20 0 109 -69q78 -61 77 -78q0 -23 -22 -23q-14 0 -117 80q-23 16 -61 49q-10 7 -10 19z" />
            <glyph
                unicode="&#xe9;"
                horiz-adv-x="454"
                d="M70 182q0 131 51 252q59 143 155 144q68 0 68 -72t-55 -158q-60 -92 -152 -151q-8 -154 88 -154q63 0 178 92q39 31 50 31q14 0 14 -16q0 -18 -41 -56q-119 -106 -211 -106q-145 0 -145 194zM137 264q55 37 101.5 111t46.5 112q0 33 -25 33q-37 0 -76 -92 q-35 -80 -47 -164zM209 676q0 18 78 80q86 68 108 67q25 1 25 -22q0 -10 -39 -41q-139 -106 -149 -107q-23 0 -23 23z" />
            <glyph
                unicode="&#xea;"
                horiz-adv-x="454"
                d="M70 182q0 131 51 252q59 143 155 144q68 0 68 -72t-55 -158q-60 -92 -152 -151q-8 -154 88 -154q63 0 178 92q39 31 50 31q14 0 14 -16q0 -18 -41 -56q-119 -106 -211 -106q-145 0 -145 194zM113 655q0 23 139 131q-16 33 -16 35q0 10 18.5 20.5t24.5 10.5t20 -33 q41 -96 95 -131q29 -18 28 -29q0 -18 -22 -18q-33 0 -70 32.5t-53 65.5q-57 -47 -84 -71q-33 -31 -53 -31q-27 0 -27 18zM137 264q55 37 101.5 111t46.5 112q0 33 -25 33q-37 0 -76 -92q-35 -80 -47 -164z" />
            <glyph
                unicode="&#xeb;"
                horiz-adv-x="454"
                d="M70 182q0 131 51 252q59 143 155 144q68 0 68 -72t-55 -158q-60 -92 -152 -151q-8 -154 88 -154q63 0 178 92q39 31 50 31q14 0 14 -16q0 -18 -41 -56q-119 -106 -211 -106q-145 0 -145 194zM137 264q55 37 101.5 111t46.5 112q0 33 -25 33q-37 0 -76 -92 q-35 -80 -47 -164zM191 694q0 16 20 88q14 49 41 49q23 0 23 -24q0 -10 -27 -98q-12 -39 -32 -39q-25 0 -25 24zM302 666q0 -8 28 120q12 35 35 33t23 -24q0 -10 -14.5 -64.5t-16.5 -58.5q-6 -29 -31 -29t-24 23z" />
            <glyph
                unicode="&#xec;"
                horiz-adv-x="303"
                d="M33 803q0 23 24 22q20 0 109 -69q78 -61 77 -78q0 -23 -22 -23q-14 0 -117 80q-23 16 -61 49q-10 7 -10 19zM78 342q0 135 18 154q27 27 58 26q20 0 20 -18q0 18 -16.5 -58t-16.5 -182q0 -223 58 -233q33 -6 32 -17q0 -37 -59 -37q-55 0 -76 101q-18 90 -18 264z" />
            <glyph
                unicode="&#xed;"
                horiz-adv-x="303"
                d="M49 676q0 18 78 80q86 68 108 67q25 1 25 -22q0 -10 -39 -41q-139 -106 -149 -107q-23 0 -23 23zM78 342q0 135 18 154q27 27 58 26q20 0 20 -18q0 18 -16.5 -58t-16.5 -182q0 -223 58 -233q33 -6 32 -17q0 -37 -59 -37q-55 0 -76 101q-18 90 -18 264z" />
            <glyph
                unicode="&#xee;"
                horiz-adv-x="303"
                d="M0 655q0 23 139 131q-16 33 -16 35q0 10 18.5 20.5t24.5 10.5t20 -33q41 -96 95 -131q29 -18 28 -29q0 -18 -22 -18q-33 0 -70 32.5t-53 65.5q-57 -47 -84 -71q-33 -31 -53 -31q-27 0 -27 18zM78 342q0 135 18 154q27 27 58 26q20 0 20 -18q0 18 -16.5 -58t-16.5 -182 q0 -223 58 -233q33 -6 32 -17q0 -37 -59 -37q-55 0 -76 101q-18 90 -18 264z" />
            <glyph
                unicode="&#xef;"
                horiz-adv-x="303"
                d="M57 694q0 16 20 88q14 49 41 49q23 0 23 -24q0 -10 -27 -98q-12 -39 -32 -39q-25 0 -25 24zM78 342q0 135 18 154q27 27 58 26q20 0 20 -18q0 18 -16.5 -58t-16.5 -182q0 -223 58 -233q33 -6 32 -17q0 -37 -59 -37q-55 0 -76 101q-18 90 -18 264zM168 666q0 -8 28 120 q12 35 35 33t23 -24q0 -10 -14.5 -64.5t-16.5 -58.5q-6 -29 -31 -29t-24 23z" />
            <glyph
                unicode="&#xf0;"
                horiz-adv-x="530"
                d="M41 260q0 88 54.5 152.5t144.5 64.5q84 0 153 -59q-57 172 -164 303q-113 -100 -112 -100q-23 0 -23 22q0 29 105 111q-47 47 -97 57q-33 6 -32 27q0 45 57 45q37 0 121 -90q113 92 162 92q25 0 24 -25q0 -29 -45 -39q-18 -4 -110 -65q63 -80 122 -199q92 -184 93 -332 q0 -123 -70 -182q-53 -49 -131 -49q-100 0 -176 79t-76 187zM104 266q0 -84 59.5 -149.5t141.5 -65.5q125 0 125 162q0 106 -63 162q-51 43 -121 43t-106 -44t-36 -108z" />
            <glyph
                unicode="&#xf1;"
                horiz-adv-x="569"
                d="M61 12q0 27 18.5 237t25 221t63.5 34q12 0 12 -21q0 -4 -16 -98q-33 -193 -41 -289q61 125 166 314q53 94 67 112q23 29 54 29q20 0 20 -16q0 18 -16 -64q-12 -61 -13 -129q0 -84 15 -160q27 -141 90 -141q23 0 47 18q18 14 27 15q16 0 16 -19q0 -20 -33 -37.5t-67 -17.5 q-158 0 -158 350q0 8 4 58q-86 -150 -190 -375q-25 -55 -39 -56q-6 0 -29 11.5t-23 23.5zM146 719q0 18 38 51t68 33q20 0 72 -31q68 -41 80 -41q18 0 49 26.5t41 26.5q26 1 18 -30q-8 -20 -34 -43q-37 -33 -78 -33q-33 0 -109 49q-33 16 -45 16q-18 0 -57 -34 q-14 -12 -25 -13q-18 0 -18 23z" />
            <glyph
                unicode="&#xf2;"
                horiz-adv-x="530"
                d="M43 250q0 113 57 201q55 82 121 81q17 0 31 -14q23 14 51 14q70 0 127 -61q61 -68 62 -170q0 -106 -68 -201q-76 -106 -188 -106q-90 0 -144 80q-49 72 -49 176zM106 276q0 -104 50 -165q43 -55 102 -56q61 0 114.5 63.5t53.5 153.5q0 92 -46 154.5t-116 54.5 q-8 -43 -37 -43q-6 0 -12 6q-18 16 -29 17q-25 0 -49 -51q-31 -57 -31 -134zM146 803q0 23 24 22q20 0 109 -69q78 -61 77 -78q0 -23 -22 -23q-14 0 -117 80q-23 16 -61 49q-10 7 -10 19z" />
            <glyph
                unicode="&#xf3;"
                horiz-adv-x="530"
                d="M43 250q0 113 57 201q55 82 121 81q17 0 31 -14q23 14 51 14q70 0 127 -61q61 -68 62 -170q0 -106 -68 -201q-76 -106 -188 -106q-90 0 -144 80q-49 72 -49 176zM106 276q0 -104 50 -165q43 -55 102 -56q61 0 114.5 63.5t53.5 153.5q0 92 -46 154.5t-116 54.5 q-8 -43 -37 -43q-6 0 -12 6q-18 16 -29 17q-25 0 -49 -51q-31 -57 -31 -134zM207 676q0 18 78 80q86 68 108 67q25 1 25 -22q0 -10 -39 -41q-139 -106 -149 -107q-23 0 -23 23z" />
            <glyph
                unicode="&#xf4;"
                horiz-adv-x="530"
                d="M43 250q0 113 57 201q55 82 121 81q17 0 31 -14q23 14 51 14q70 0 127 -61q61 -68 62 -170q0 -106 -68 -201q-76 -106 -188 -106q-90 0 -144 80q-49 72 -49 176zM106 276q0 -104 50 -165q43 -55 102 -56q61 0 114.5 63.5t53.5 153.5q0 92 -46 154.5t-116 54.5 q-8 -43 -37 -43q-6 0 -12 6q-18 16 -29 17q-25 0 -49 -51q-31 -57 -31 -134zM111 655q0 23 139 131q-16 33 -16 35q0 10 18.5 20.5t24.5 10.5t20 -33q41 -96 95 -131q29 -18 28 -29q0 -18 -22 -18q-33 0 -70 32.5t-53 65.5q-57 -47 -84 -71q-33 -31 -53 -31q-27 0 -27 18z " />
            <glyph
                unicode="&#xf5;"
                horiz-adv-x="530"
                d="M43 250q0 113 57 201q55 82 121 81q17 0 31 -14q23 14 51 14q70 0 127 -61q61 -68 62 -170q0 -106 -68 -201q-76 -106 -188 -106q-90 0 -144 80q-49 72 -49 176zM106 276q0 -104 50 -165q43 -55 102 -56q61 0 114.5 63.5t53.5 153.5q0 92 -46 154.5t-116 54.5 q-8 -43 -37 -43q-6 0 -12 6q-18 16 -29 17q-25 0 -49 -51q-31 -57 -31 -134zM121 719q0 18 38 51t68 33q20 0 72 -31q68 -41 80 -41q18 0 49 26.5t41 26.5q26 1 18 -30q-8 -20 -34 -43q-37 -33 -78 -33q-33 0 -109 49q-33 16 -45 16q-18 0 -57 -34q-14 -12 -25 -13 q-18 0 -18 23z" />
            <glyph
                unicode="&#xf6;"
                horiz-adv-x="530"
                d="M43 250q0 113 57 201q55 82 121 81q17 0 31 -14q23 14 51 14q70 0 127 -61q61 -68 62 -170q0 -106 -68 -201q-76 -106 -188 -106q-90 0 -144 80q-49 72 -49 176zM106 276q0 -104 50 -165q43 -55 102 -56q61 0 114.5 63.5t53.5 153.5q0 92 -46 154.5t-116 54.5 q-8 -43 -37 -43q-6 0 -12 6q-18 16 -29 17q-25 0 -49 -51q-31 -57 -31 -134zM197 694q0 16 20 88q14 49 41 49q23 0 23 -24q0 -10 -27 -98q-12 -39 -32 -39q-25 0 -25 24zM308 666q0 -8 28 120q12 35 35 33t23 -24q0 -10 -14.5 -64.5t-16.5 -58.5q-6 -29 -31 -29t-24 23z " />
            <glyph
                unicode="&#xf7;"
                horiz-adv-x="872"
                d="M74 332v65h725v-65h-725zM373 106q0 64 63 64t64 -64q0 -63 -64 -63q-63 0 -63 63zM373 623q0 65 63 65t64 -65q0 -63 -64 -64q-63 0 -63 64z" />
            <glyph
                unicode="&#xf8;"
                horiz-adv-x="530"
                d="M6 16q0 6 11.5 21.5t54.5 58.5q-35 63 -35 154q0 113 57.5 197.5t122.5 84.5q18 0 29 -14q25 14 51 14q76 0 139 -79q68 55 74 55q27 0 27 -31q0 -10 -18.5 -25.5t-53.5 -45.5q20 -51 20 -105q0 -109 -65 -201q-76 -106 -189 -106q-74 0 -131 57q-10 -12 -43 -45 q-18 -14 -24 -14q-27 0 -27 24zM100 274q0 -63 25 -122q102 109 262 256q-51 84 -129 73q-8 -43 -37 -43q-6 0 -12 6q-18 16 -29 17q-25 0 -49 -49q-31 -59 -31 -138zM154 106q47 -51 96 -51q63 0 116.5 63.5t53.5 153.5q0 37 -10 82q-129 -119 -256 -248z" />
            <glyph
                unicode="&#xf9;"
                d="M92 68q0 51 17 370q2 29 26.5 45.5t42.5 16.5q25 0 25 -19q0 8 -15 -57q-31 -141 -30 -338q0 -31 16 -31q18 0 105 97q123 137 122 192q0 63 -4 105.5t-4 50.5q0 18 25.5 33.5t42.5 15.5q18 0 18 -23q0 -4 -3 -27.5t-3 -25.5q-4 -55 -4 -102q0 -96 12 -187 q14 -112 39 -112l17 4q16 0 16 -15q0 -10 -17.5 -29.5t-35.5 -19.5q-39 0 -58 58q-14 43 -28 168q-70 -88 -95 -119q-43 -47 -98 -96q-45 -39 -71 -39q-57 0 -58 84zM166 803q0 23 24 22q20 0 109 -69q78 -61 77 -78q0 -23 -22 -23q-14 0 -117 80q-23 16 -61 49 q-10 7 -10 19z" />
            <glyph
                unicode="&#xfa;"
                d="M92 68q0 51 17 370q2 29 26.5 45.5t42.5 16.5q25 0 25 -19q0 8 -15 -57q-31 -141 -30 -338q0 -31 16 -31q18 0 105 97q123 137 122 192q0 63 -4 105.5t-4 50.5q0 18 25.5 33.5t42.5 15.5q18 0 18 -23q0 -4 -3 -27.5t-3 -25.5q-4 -55 -4 -102q0 -96 12 -187 q14 -112 39 -112l17 4q16 0 16 -15q0 -10 -17.5 -29.5t-35.5 -19.5q-39 0 -58 58q-14 43 -28 168q-70 -88 -95 -119q-43 -47 -98 -96q-45 -39 -71 -39q-57 0 -58 84zM239 676q0 18 78 80q86 68 108 67q25 1 25 -22q0 -10 -39 -41q-139 -106 -149 -107q-23 0 -23 23z" />
            <glyph
                unicode="&#xfb;"
                d="M92 68q0 51 17 370q2 29 26.5 45.5t42.5 16.5q25 0 25 -19q0 8 -15 -57q-31 -141 -30 -338q0 -31 16 -31q18 0 105 97q123 137 122 192q0 63 -4 105.5t-4 50.5q0 18 25.5 33.5t42.5 15.5q18 0 18 -23q0 -4 -3 -27.5t-3 -25.5q-4 -55 -4 -102q0 -96 12 -187 q14 -112 39 -112l17 4q16 0 16 -15q0 -10 -17.5 -29.5t-35.5 -19.5q-39 0 -58 58q-14 43 -28 168q-70 -88 -95 -119q-43 -47 -98 -96q-45 -39 -71 -39q-57 0 -58 84zM160 655q0 23 139 131q-16 33 -16 35q0 10 18.5 20.5t24.5 10.5t20 -33q41 -96 95 -131q29 -18 28 -29 q0 -18 -22 -18q-33 0 -70 32.5t-53 65.5q-57 -47 -84 -71q-33 -31 -53 -31q-27 0 -27 18z" />
            <glyph
                unicode="&#xfc;"
                d="M92 68q0 51 17 370q2 29 26.5 45.5t42.5 16.5q25 0 25 -19q0 8 -15 -57q-31 -141 -30 -338q0 -31 16 -31q18 0 105 97q123 137 122 192q0 63 -4 105.5t-4 50.5q0 18 25.5 33.5t42.5 15.5q18 0 18 -23q0 -4 -3 -27.5t-3 -25.5q-4 -55 -4 -102q0 -96 12 -187 q14 -112 39 -112l17 4q16 0 16 -15q0 -10 -17.5 -29.5t-35.5 -19.5q-39 0 -58 58q-14 43 -28 168q-70 -88 -95 -119q-43 -47 -98 -96q-45 -39 -71 -39q-57 0 -58 84zM225 694q0 16 20 88q14 49 41 49q23 0 23 -24q0 -10 -27 -98q-12 -39 -32 -39q-25 0 -25 24zM336 666 q0 -8 28 120q12 35 35 33t23 -24q0 -10 -14.5 -64.5t-16.5 -58.5q-6 -29 -31 -29t-24 23z" />
            <glyph
                unicode="&#xfd;"
                d="M-59 -145q0 33 26 32q14 0 29 -41q29 -86 122 -158.5t185 -72.5q90 0 125 92t35 227q0 193 -51 410q-137 -397 -228 -397q-57 0 -69 96q-18 141 -19 334q0 39 27 56.5t43 17.5q10 0 10 -13q0 -31 -8 -80q-6 -88 -6 -139q0 -213 28 -213q23 0 101 176q82 184 82 269 q0 41 -29 98q-29 43 -29 41q0 10 28 25.5t34 15.5q35 0 84 -185q66 -248 65 -469q0 -410 -231 -409q-123 0 -244 108q-111 102 -110 179zM174 676q0 18 78 80q86 68 108 67q25 1 25 -22q0 -10 -39 -41q-139 -106 -149 -107q-23 0 -23 23z" />
            <glyph
                unicode="&#xfe;"
                d="M78 -84q0 205 41 571q39 352 59 371q33 31 66 31q20 0 20 -15q0 14 -35 -135q-28 -119 -65 -389q195 184 301 185q43 0 75.5 -26t32.5 -67q0 -119 -135 -272q-145 -162 -291 -178q-4 -57 -4 -139q0 -205 47 -205q4 0 20.5 8t18.5 8q14 0 15 -18q0 -14 -22.5 -31.5 t-45.5 -17.5q-61 0 -82 88q-16 68 -16 231zM147 51q82 -16 219.5 127.5t137.5 251.5q0 51 -49 51q-92 0 -293 -209q-18 -127 -15 -221z" />
            <glyph
                unicode="&#xff;"
                d="M-59 -145q0 33 26 32q14 0 29 -41q29 -86 122 -158.5t185 -72.5q90 0 125 92t35 227q0 193 -51 410q-137 -397 -228 -397q-57 0 -69 96q-18 141 -19 334q0 39 27 56.5t43 17.5q10 0 10 -13q0 -31 -8 -80q-6 -88 -6 -139q0 -213 28 -213q23 0 101 176q82 184 82 269 q0 41 -29 98q-29 43 -29 41q0 10 28 25.5t34 15.5q35 0 84 -185q66 -248 65 -469q0 -410 -231 -409q-123 0 -244 108q-111 102 -110 179zM164 694q0 16 20 88q14 49 41 49q23 0 23 -24q0 -10 -27 -98q-12 -39 -32 -39q-25 0 -25 24zM275 666q0 -8 28 120q12 35 35 33t23 -24 q0 -10 -14.5 -64.5t-16.5 -58.5q-6 -29 -31 -29t-24 23z" />
            <glyph
                unicode="&#x152;"
                horiz-adv-x="1630"
                d="M72 322q0 223 188 395q172 156 348 155q133 0 133 -71q0 -20 -19.5 -34.5t-35.5 -14.5q-14 0 -35 28q-35 49 -90 49q-106 0 -246 -124q-172 -154 -172 -359q0 -147 95.5 -246.5t242.5 -99.5q190 0 365 158q111 100 129 235q-2 0 -88 -31q-45 -23 -62 -22q-16 0 -16 37 q0 14 37 29q70 25 121 40q-20 92 -84 140q-88 63 -238 63q-113 0 -248 -47q-14 -4 -30 -10q-12 0 -13 14q0 20 92 51q104 35 218 35q210 0 323 -119l27 271q4 10 37 24q27 10 34 11q6 0 7 -7q0 -2 -3.5 -23.5t-3.5 -25.5q174 82 318 82q143 0 143 -63q0 -61 -37 -62 q-8 0 -25.5 34t-92.5 34q-135 0 -316 -90q-12 -109 -31 -295q166 41 355 41q96 0 121 -12q16 -8 16 -29q0 -39 -33 -39l-46 12q-46 13 -122 13q-135 0 -293 -37q-4 -57 -4 -111q0 -158 27 -213q23 -43 76 -43q92 0 289 90q137 63 145 64q18 0 18 -21q0 -14 -47 -41 q-309 -170 -459 -170q-68 0 -92 82q-18 55 -20 178q-76 -102 -195 -176q-158 -98 -334 -98q-195 0 -294 125q-80 100 -80 244z" />
            <glyph
                unicode="&#x153;"
                horiz-adv-x="872"
                d="M41 250q0 117 59 203q55 80 121 79q18 0 29 -14q23 14 51 14q53 0 100 -36q57 -47 80 -129q78 154 211 153q86 0 86 -71q0 -76 -102 -177q-90 -88 -178 -129q12 -96 106 -96q68 0 170 84q43 35 51 35q18 0 19 -19q0 -29 -82 -86q-92 -66 -168 -65q-133 0 -160 123 q-72 -125 -198 -125q-92 0 -146 80q-49 70 -49 176zM104 276q0 -102 50 -165q45 -55 102 -56q59 0 113.5 62.5t54.5 154.5t-46 154.5t-116 54.5q-8 -43 -37 -43q-6 0 -12 6q-18 16 -29 17q-25 0 -49 -51q-31 -57 -31 -134zM489 197q98 49 166 131q55 68 56 106q0 33 -33 33 q-59 0 -121 -78q-56 -69 -68 -192z" />
            <glyph
                unicode="&#x178;"
                horiz-adv-x="1099"
                d="M49 664q0 156 469 241q-8 16 -8 29q0 12 35 24q27 8 39 9q16 0 18 -41q4 -182 10 -424q8 -164 25 -398q0 -23 12 -22q8 0 45 59q123 197 201 459q-6 23 -37 88q-2 4 -11 22.5t-9 20.5q0 10 32.5 27.5t40.5 17.5q16 0 39 -84q59 -223 60 -475q0 -242 -74 -438 q-76 -203 -246 -203q-219 0 -342 270q-61 137 -61 256q0 41 63 41q18 0 19 -18q0 -6 -3.5 -34t-3.5 -32q0 -170 103.5 -302t228.5 -132q154 0 217 244q37 139 37 311q0 184 -33 305q-78 -219 -190 -401q-51 -82 -98 -82q-31 0 -41.5 23.5t-16.5 105.5q-16 305 -43 713 q-123 -2 -262 -51q-154 -55 -153 -115q0 -25 30.5 -35t30.5 -29q0 -33 -41 -32q-33 0 -57.5 23.5t-24.5 58.5zM682 1112q0 16 20 88q14 49 41 49q23 0 23 -24q0 -10 -27 -98q-12 -39 -32 -39q-25 0 -25 24zM793 1084q0 -8 28 120q12 35 35 33t23 -24q0 -10 -14.5 -64.5 t-16.5 -58.5q-6 -29 -31 -29t-24 23z" />
            <glyph
                unicode="&#x2c6;"
                horiz-adv-x="303"
                d="M41 655q0 23 139 131q-16 33 -16 35q0 10 18.5 20.5t24.5 10.5t20 -33q41 -96 95 -131q29 -18 28 -29q0 -18 -22 -18q-33 0 -70 32.5t-53 65.5q-57 -47 -84 -71q-33 -31 -53 -31q-27 0 -27 18z" />
            <glyph
                unicode="&#x2dc;"
                horiz-adv-x="303"
                d="M33 719q0 18 38 51t68 33q20 0 72 -31q68 -41 80 -41q18 0 49 26.5t41 26.5q26 1 18 -30q-8 -20 -34 -43q-37 -33 -78 -33q-33 0 -109 49q-33 16 -45 16q-18 0 -57 -34q-14 -12 -25 -13q-18 0 -18 23z" />
            <glyph
                unicode="&#x2000;"
                horiz-adv-x="805" />
            <glyph
                unicode="&#x2001;"
                horiz-adv-x="1610" />
            <glyph
                unicode="&#x2002;"
                horiz-adv-x="805" />
            <glyph
                unicode="&#x2003;"
                horiz-adv-x="1610" />
            <glyph
                unicode="&#x2004;"
                horiz-adv-x="536" />
            <glyph
                unicode="&#x2005;"
                horiz-adv-x="402" />
            <glyph
                unicode="&#x2006;"
                horiz-adv-x="268" />
            <glyph
                unicode="&#x2007;"
                horiz-adv-x="268" />
            <glyph
                unicode="&#x2008;"
                horiz-adv-x="201" />
            <glyph
                unicode="&#x2009;"
                horiz-adv-x="322" />
            <glyph
                unicode="&#x200a;"
                horiz-adv-x="89" />
            <glyph
                unicode="&#x2010;"
                horiz-adv-x="681"
                d="M80 285q-2 20 16 20q16 0 96 -2t93 -2q8 0 147 2h146q27 0 26 -33q0 -18 -8 -22t-43 -4q-14 0 -219 2h-215q-27 0 -33 5t-6 34z" />
            <glyph
                unicode="&#x2011;"
                horiz-adv-x="681"
                d="M80 285q-2 20 16 20q16 0 96 -2t93 -2q8 0 147 2h146q27 0 26 -33q0 -18 -8 -22t-43 -4q-14 0 -219 2h-215q-27 0 -33 5t-6 34z" />
            <glyph
                unicode="&#x2012;"
                horiz-adv-x="681"
                d="M80 285q-2 20 16 20q16 0 96 -2t93 -2q8 0 147 2h146q27 0 26 -33q0 -18 -8 -22t-43 -4q-14 0 -219 2h-215q-27 0 -33 5t-6 34z" />
            <glyph
                unicode="&#x2013;"
                horiz-adv-x="1024"
                d="M0 250v53h1024v-53h-1024z" />
            <glyph
                unicode="&#x2014;"
                horiz-adv-x="2048"
                d="M266 250v53h1516v-53h-1516z" />
            <glyph
                unicode="&#x2018;"
                horiz-adv-x="378"
                d="M162 702q0 61 28 125q27 55 46 56q23 0 22 -19q-10 -39 -10 -37q-14 -47 -15 -73q0 -45 17 -84q27 -39 26 -43q0 -6 -25.5 -23.5t-31.5 -17.5q-16 0 -36.5 32.5t-20.5 83.5z" />
            <glyph
                unicode="&#x2019;"
                horiz-adv-x="378"
                d="M102 844q0 6 26 22.5t32 16.5q16 0 35 -29q22 -37 22 -86q0 -63 -27.5 -122.5t-48.5 -59.5q-20 0 -20 18q0 27 10 37q14 51 14 76q0 47 -18 82q0 4 -12.5 22.5t-12.5 22.5z" />
            <glyph
                unicode="&#x201a;"
                horiz-adv-x="378"
                d="M123 76q0 4 25.5 21.5t31.5 17.5q16 0 37 -33t21 -84q0 -63 -28 -121.5t-48 -58.5t-21 18q0 16 11 37q14 49 14 76q0 55 -19 82q0 4 -12 22.5t-12 22.5z" />
            <glyph
                unicode="&#x201c;"
                horiz-adv-x="569"
                d="M184 702q0 63 29 125q27 55 47 56q20 0 21 -19q-6 -29 -11 -37q-12 -39 -12 -73q0 -43 16 -84q0 -2 12.5 -20.5t12.5 -22.5q0 -6 -25.5 -23.5t-31.5 -17.5q-16 0 -37 32.5t-21 83.5zM362 705q0 61 29 124q27 55 45 56q23 0 23 -19q-10 -39 -10 -37q-14 -47 -15 -75 q0 -43 17 -82q25 -37 24 -43q0 -6 -24.5 -23.5t-30.5 -17.5q-16 0 -37 33t-21 84z" />
            <glyph
                unicode="&#x201d;"
                horiz-adv-x="569"
                d="M94 844q0 6 25.5 22.5t32.5 16.5q16 0 34 -29q23 -37 23 -86q0 -63 -27.5 -122.5t-48.5 -59.5q-20 0 -20 18q0 27 10 37q14 51 14 76q0 55 -18 82q0 4 -12.5 22.5t-12.5 22.5zM272 846q0 4 25 21.5t33 17.5q14 0 34.5 -33t20.5 -84q0 -61 -27.5 -120.5t-46.5 -59.5 q-23 0 -22 18q0 2 5 18.5t5 18.5q14 41 14 76q0 49 -16 82q-25 49 -25 45z" />
            <glyph
                unicode="&#x201e;"
                horiz-adv-x="569"
                d="M184 74q0 4 26 21.5t32 17.5q16 0 36.5 -33t20.5 -84q0 -63 -27.5 -121.5t-48.5 -58.5q-20 0 -20 18q0 16 10 37q14 49 14 76q0 55 -18 82q0 4 -12.5 22.5t-12.5 22.5zM362 76q0 4 25 21.5t33 17.5q14 0 34.5 -33t20.5 -84q0 -61 -29 -125q-27 -55 -45 -55q-23 0 -22 18 q10 39 10 37q14 41 14 76q0 49 -16 82q-25 37 -25 45z" />
            <glyph
                unicode="&#x2022;"
                horiz-adv-x="720"
                d="M94 526q0 111 78.5 189t187.5 78t188 -78t79 -189t-78 -188.5t-189 -77.5t-188.5 78t-77.5 188z" />
            <glyph
                unicode="&#x2026;"
                horiz-adv-x="2048"
                d="M285 47q0 57 57 57t57 -57t-57 -57t-57 57zM967 47q0 57 57 57t57 -57t-57 -57t-57 57zM1649 47q0 57 57 57t57 -57t-57 -57t-57 57z" />
            <glyph
                unicode="&#x202f;"
                horiz-adv-x="322" />
            <glyph
                unicode="&#x2039;"
                horiz-adv-x="454"
                d="M63 223q0 27 58 35q72 10 162 160q39 63 57 63q29 0 29 -28q0 -29 -54 -101q-61 -80 -131 -119q92 -23 148 -96q41 -55 41 -92q0 -29 -29 -29q-8 0 -41 54q-70 117 -180 125q-39 2 -49.5 6t-10.5 22z" />
            <glyph
                unicode="&#x203a;"
                horiz-adv-x="454"
                d="M82 45q0 37 41 92q55 73 147 96q-70 39 -131 119q-51 72 -51 101t27 28q18 0 57 -63q49 -82 80 -109q41 -41 115 -57q25 -6 24 -27q0 -23 -18 -26q-4 -2 -39 -4q-111 -8 -180 -125q-33 -53 -43 -54q-29 0 -29 29z" />
            <glyph
                unicode="&#x205f;"
                horiz-adv-x="402" />
            <glyph
                unicode="&#x2122;"
                horiz-adv-x="1441"
                d="M231 969v37h406v-37h-184v-465h-37v465h-185zM739 504v502h58l178 -453l180 453h57v-502h-36v461l-183 -461h-37l-180 461v-461h-37z" />
            <glyph
                unicode="&#x25fc;"
                horiz-adv-x="593"
                d="M0 0v594h594v-594h-594z" />
        </font>
</defs>
</svg>
